<mxfile host="app.diagrams.net" modified="2023-06-13T01:40:01.477Z" agent="Mozilla/5.0 (Windows NT 10.0; Win64; x64) AppleWebKit/537.36 (KHTML, like Gecko) Chrome/114.0.0.0 Safari/537.36 Edg/114.0.1823.43" etag="qtN7BRpxkKN_K6RhlHE3" version="21.3.2" type="github">
  <diagram name="第 1 页" id="ui6I7RePk-4ecggxbgm7">
    <mxGraphModel dx="1018" dy="646" grid="1" gridSize="10" guides="1" tooltips="1" connect="1" arrows="1" fold="1" page="1" pageScale="1" pageWidth="827" pageHeight="1169" math="0" shadow="0">
      <root>
        <mxCell id="0" />
        <mxCell id="1" parent="0" />
        <mxCell id="yygSjh7mzqQ4J_nsRkTJ-1" value="" style="rounded=1;whiteSpace=wrap;html=1;fillColor=#83dd9c;" vertex="1" parent="1">
          <mxGeometry x="90" y="410" width="120" height="60" as="geometry" />
        </mxCell>
        <mxCell id="yygSjh7mzqQ4J_nsRkTJ-2" value="" style="shape=image;verticalLabelPosition=bottom;labelBackgroundColor=default;verticalAlign=top;aspect=fixed;imageAspect=0;image=data:image/png,iVBORw0KGgoAAAANSUhEUgAAArAAAAFZCAYAAABg5xxhAAAgAElEQVR4nOzd+XNdd33/8ee599x937RdSdZqS7Zs2XHiOE4gi7MSCAOllLZAmTLT73SmnbbTaacz7V/SUgp0hqEUOhSGgksCcRwc2/EWy7ZsLdZ+da+2u+/3nPP9wehgh0DBVrTY7weTQZa1nHMsfe7rvD/vz+cohmEYCCGEEEIIsUNYtvoAhBBCCCGE+F1IgBVCCCGEEDuKBFghhBBCCLGjSIAVQgghhBA7igRYIYQQQgixo0iAFUIIIYQQO4oEWCGEEEIIsaNIgBVCCCGEEDuKBFghhBBCCLGjSIAVQgghhBA7igRYIYQQQgixo0iAFUIIIYQQO4oEWCGEEEIIsaNIgBVCCCGEEDuKBFghhBBCCLGjqFt9AELsJLquo+s6FosFi0Xu/4QQH65CoUCtVsPtdgOwurqK1WolHA5jtVppNBoYhoGiKL/yuVarFavVSrVaxTAM7Ha7+XEfNH4tLi6i6zqRSASHw/GBX1OI7UICrBC/0Gg0mJubI51Oc+DAAVT17l8PTdNIJpMsLCzQ2tpKR0fHXZ+bTCYpFAp0d3eTz+fJZrNEo1ECgQAAhmFQr9eZnZ0lnU6ze/duvF4vcPuFRggh3m9hYYF0Ok2pVGJubo7x8XEsFgutra10dnYSCAQoFAqsra2Rz+dxuVxEIhFisRidnZ1Eo1HGxsao1Wr09vYyNTVFPp+nv7+f5uZmMpkM165dY25ujomJCarVKk1NTUQiEQ4cOMDu3btxuVxbfRmE+BUSYMVDr9FoUKvVqNVqrK2tMT09jcfjIR6PA7+sVFSrVZLJJBMTEwCEQiEsFgt2u51Go8H8/DypVAq/38/ly5fJ5XK88sorNBoNZmZmuHTpEsvLy6ytrdFoNDhz5gx+v58nnniC3bt3b9n5CyG2p5WVFS5dusTs7Czt7e0YhkFrayuFQgFFUQiFQkxNTXHu3DlWV1cpFot4PB5cLhePP/44ra2tWCwWVlZWKJfLFItFpqamaGpqwmq1oigKqVSKVCpFPp/H7/cTDAZJp9NUKhVsNpvcXIttSwKseKjpuk4qleLChQvcuHGD5eVlHA4H586dw+Vy0dXVRVNTE4ZhMDExwcTEBNevX2f37t0cPHiQtrY2Dh8+TDgcplqtsrS0xMWLF5mfn+eJJ57A4/GgaRpra2tMTk6ytLREuVwmGAwyPj6OzWZj//79W30ZhBDbkNPpJBAIEI1GKZVKJJNJstks1WqVbDZLV1cXiqIQi8VoamqiVCoRDofJ5XK43W7z5rpWq7G6umreYPf29uJ2u9E0jWq1SrFYJJlMksvlzLfdbjcDAwN0dXVht9u3+lII8SskwIqHmqIoeL1edu3axcLCAoVCgWeffZb33nuP5eVl9u3bh8/no9FoUCgUuHr1Kvl8Hk3TaG9vZ9euXRiGwdjYGFevXmV+fp56vY6iKORyOS5dukQoFMJqtdLa2ko8HqdUKtHa2sra2hqVSoWurq6tvgxCiG3I4/EQiURIJpMkEgkMwzD7YRVFMSulq6urLC0tUavVCIfD6LpOd3c3q6urnD9/nh/96EesrKxQr9cJhUKMjIzg8Xg4cuQIFosFj8dDLBajXq+jaRoWi8VsI7DZbFt9GYT4QBJgxUNNURQCgQCDg4PUajXGxsaIRqN0dXXR19fHY489BkCpVGJxcZFgMMgnP/lJs61gcHCQer1Oo9EgEolQLpcJh8NUKhWam5txOBw4HA6zIuL1ejl37hxnz54lGo3y5JNPEgqFtvISCCG2qampKd555x1KpRIej4eWlhZyuRw+n49qtcrIyAhjY2OMj4+TTqfNRVuqqpLNZnE6nXR3d9PX10dbWxuaplGv1+ns7KS9vZ2Ojg4WFhbweDwMDQ2xZ88eLBYL1WqVeDxOV1eXBFixbUmAFQJQVZXOzk7Gx8f5yle+wr59+3jttdcAqNVqjIyMcPnyZXbv3o3P56NSqXDz5k0AXn75ZZqbm2lra6PRaNDX18eNGzfIZDIcOXKESqXC1NQUyWSSxcVFvvvd77K0tERrayttbW3oui59ZkKIXxEIBGhvb6darVKv11laWsLtduN2u0mn00QiEV588UV8Ph+5XI5QKITX66W7u5uuri4GBgbYtWsXxWKRSqVCOBzm/PnzeDwehoeHaW5uZm5uDovFgtfrJZfL4fF4KBaLFAoFGo3GVl8CIX4tCbBCcHuhlsvlolqtcvbsWcLhMG63m3q9ztjYGJcuXaKpqYlgMEgikSAWixGNRmk0GiwuLppvLywsUKvVmJubI5VKYbVa2bt3L5VKBbfbzTPPPEOxWGRycpLdu3eze/du2apGCPGBXC4XmqZRLpcB8Pv99PX1YbPZmJubo729nWPHjjE8PMybb77JzMwM2WyWYrFIe3s7nZ2dOJ1ONE3j5MmTtLe3E4/HmZqa4lvf+hYf+chHWFtbw+Vy0dTURDqd5o033iAcDtPT04PD4djiKyDErycBVjzUdF1ndXWVs2fPcuPGDSKRCH/913+Npmn827/9G4ZhsG/fPj7ykY/g9/vNLW1aW1sZHBxE0zTsdju6rlMoFJifn6etrY3jx4+TSqW4fPkyjUaDSqWCw+Ggvb2dWCzGjRs3aDQaVKtVFhYWaGlpkak6IcRdLBYLPT09NBoNbDYbHo+H5uZmc4eAer3O+Pg4tVqNffv2cfDgQXRdp1arUa/XKRaL2O12IpEIQ0NDdHR0MDg4SF9fH0tLS+aWW7du3WJ2dhZFUQgGgyiKwv/+7/8yPT3NkSNHiEQisu+12HYUwzCMrT4IIbaKYRhks1lu3LhBOp1mYGCA1tZWMpkMExMTFItF+vv76e7uRtd1lpaWWFxcpLm52dxmC25vxTU7O8vCwgJ9fX3EYjGy2Syrq6s4nU6q1SqJRAKLxUI+nzcXeqmqSnt7OwMDA7LSVwhxF8MwqFar5p8tFguqqqJpGpqmUavVSKfTNBoNAoEAfr8fVVUpl8vU63WcTicOh8NceLq+M4Gu6+YDEMrlMsvLy2SzWdxuN8Fg0NxRJRgM0tHRYS4aE2I7kQArHnrrCxsURblrykzTNBqNBhaLBZvNhmEY5pY0NpvtVwKnpmkYhvErD0BYf4BBqVSiVqvhcrlwuVxmhURVVfx+v1Q4hBBCiN+SBFghhBBCCLGjSA/sh+DOaWkhxIPD6XQSj8eJRqM7ckp1fWyan5+nUChs9eEIITaIruv09/cTDocfml1tJMB+SNLpNKOjoxw7duxXppSFEDtPJpMhkUigqiqRSGRHBli4PTbNz8/j9/tpbm7e6sMRQmyAn//85wSDQQKBgARYce/WeyU1TaOjo0MW5wjxAHA6nebTjHZq55VhGGiaBkA0GmXXrl1bfERCiI1w+vRp83f7YSEB9kO0vmJUKrBC7HxWqxWLxbJjK693slgs5hObhBA734MyNv0uZPQSQohtTtd1FhYWuHTpEuVyGY/Hg67rNDc3Ew6HWV5eZnl5Ga/Xi8/nM/f0PHToEB0dHbLHsBDigSMBVgghtjnDMHC5XLS3tzM/P8+1a9e4desWfX19DA0NUSqV0HWdtbU1VldXsVgs2O12VlZW8Pl8+P1+xsbGOHv2LPPz88TjcXp7e7f6tIQQ4p5JgH3A6LqOruu/cWrQMAx0Xb+r0dswDAzDQFEU8//fPx2x/n4hxOayWCyEQiHK5TKLi4t0dHTQ0dEBwOLiIoqi0NnZSS6Xo1As0tPdjcvlolAoUCqVCIVCtLS08OijjxKLxajX61t8Rr+erusYhvEbp0TvHK/WP0bGMCEeLhJgd6DV1VXeeecdCoUCLS0t+Hw+YrEYHR0dpFIpLl68SEtLCxcuXMDlcuFwODh+/DjlcpmrV69y8OBBrl27xuHDhwkGgwDMzs5y6tQpIpEIc3NzNBoNHnvsMYaGhigWi0xNTeF0Osnn8xw7dsw8lnw+Tzabpa2tjVQqxdjYmFndyefz5HI5WlpamJ+fZ2RkhObmZg4ePGgubGs0GiwuLjI1NUVnZyehUIjJyUl0XWdoaAin07kl11iI7URRFMrlMslkklqtRk9PDy0tLaysrHD27FkzvOm6juUXAW59Ien6wzWi0SjhcBiPx8PU1NSWns/KygrXrl0zK8ShUIimpiaam5tZXV1lfn6eYrHIysoKhUKBcDjM/v37MQyDXC5nPo0qFovR0tKCqqpMT08zNjZGqVQik8mgaRp79uxh7969NBoN0uk0+Xweu91OV1cXgUAAgFwuR7VaxefzkcvlWF5eJhAIoKoq8/PzlEol2tvbicfj5oNOCoUCCwsLWK1WQqEQy8vLzM/PE41G6e/vx+PxbOXlFeKhIAF2ByoWi7z77rtMT0/T29uLw+Hg4MGDLC0tMT09zalTpxgYGCCTyRCJRMxHmo6Pj3Pu3DksFgs/+tGPOHfuHH6/n6effpp8Ps/c3BzNLS0kUylcTiculwtVVSkWi4yNjaGqKuFwGLhdyVhZWeGnP/0ppVKJV199lZGREZaXl5mZmUFRFN59912q1SqvvfYa8/PzOBwO2trazMqvruskk0lGRkbIZDJMTU0xNDTEe++9RzQaJZ/P8+yzz27lpRZiW9B1ndnZWc6cOQPcvvG7fPmyGbysVisTExMoikIoFGJ0dJRarcbevXvxer0AZkVyO1Qg8/k8IyMj3LhxA4/HQ1NTE93d3bS0tDA3N8etW7dQFMW8gbVYLKRSKVZXV0kmk1itVpaXlymXy7S0tDA8PEypVGJpaQmr1UomkzEXqtlsNvL5PFNTU6ytrRGPx83q9fLyMqdPn0bXdXp7e1lbW2NqaorW1lY8Hg/lcpnm5maCweBd49aNGze4fv06wWDQDLWhUIhYLCb9xkJsEgmwO9B6m8D6s7ArlQp+v59UKkU8HjcfU7r+TOxHH30Uj8dDNBrF4XBQLpcJBoM0Nzejqio3b95kdHSURqNBsVBg/9AQiqIwMzNDS0sLJ0+e5Hvf+x7lcploNMoPfvADurq6+JM/+RMCgQDpdBqfz8fQ0BBTU1NcvXoVh8NBIBBgbm6OtbU13n77bRYWFqjVarS1tQGYL7YHDhxgcnKSGzdu0NHRgcvlYmFhgXQ6vcVXWojtQVEU4vE4L7/8stnfWiwWAfD5fNTrddbW1szfu0wmQ7Vapa2tzZxl2U7Wq8WGYVAul6nVaui6Tr1ex+fz4fF4qFarNBoNXC4X8XiclpYWdF0nnU5Tr9dxu914vV68Xi9TU1MsLCygaRptbW309PRQr9epVqssLi4yMjLCiRMnWFxcJBAI4PF4OHDgAE8//TROp5NSqUQymaTRaNDa2orT6eTmzZtcuHCBnp4ePvaxj5k3AsVikWKxSCwWQ1VVxsfHmZqawuv18tRTT+Hz+WTrRCE2gQTY99F13RxMHQ4HjUYDwzBwOBxmYHQ4HCiKQq1WQ1EU7Hb7plU1DMMgGAzy2GOPoaoq7e3tXL16FU3T0DSNK1eusLq6yjPPPMPq6iq1Wo0DBw6YVYhIJMKxY8fo7u5mZmbGfJFzu928++671Ot1du/eTaVSYXJy0hyUrVYr77zzDk8++SS1Wo2lpSX8fj8tLS0sLi7icrlQFIXJyUlsNhuxWIzm5maWlpZoaWnhk5/8JLdu3aJQKJBMJmlra0NRFNxuN5qmUa/X8fv9hMNhUqkUiUSC5557blOuqRDbnaIoBAIBc9r7/daD23rVcT3sWa3WbbepuWEYhMNh9uzZg9VqNYO4rutUKhVu3brF2toa3d3dqKqKw+Ggu7ubtrY2MzjG43FUVWVubo5KpUIwGMTr9TI3N4fFYqG1tZVSqUSj0cDpdHLkyBEajQY3b94kHo/fFYCj0SgrKys0Gg1UVTV7hPfs2cPg4CBLS0skEgmam5uJRqPU63VsNhvRaJRKpUJnZyf79+8nlUpRLpcpl8v4fL5tUekW4kEmAfYOuq4zPT3NiRMnaGlpoVarMTExwf79+2lvb2dychKn04lhGHR1dXHixAl6enp4/vnn8fv9H/6AZeig1ahX8qiqyp49e8hms+zevZsf/vCH/Nmf/Rler5dkMsny8jJnzpxhMZkkmUzyxS9+kWw2y/nz57Hb7djtdnRdN0NjMBjk4sWLqKqKx+NBURQsFgtOp5Pm5mbi8TgHDx6kp6eHN998k1gsZu6LuX7tJiYmuHbtGq+++io2mw2r1YphGGQyGfL5PLt37+b8+fOUy2XzlDRNY2JigqmpKV599VWSySTj4+O0t7eblVohxG/2/qC6bfd3NTTQ6tQqBTxuF5FIBI/Hw9raGolEgpaWFgYGBpiYmCCXyzE3N8dCIsGNGzf42Mc+Ri6X47333uPmzZvm09B8Ph+RSAS3283q6iqqquJyuczqrtPpxOv10t7ejtPpxG63Mz09jd1ux+l0movF1lsB8vk8xWIRq9XKrl27qFarFItFarUagPk55XKZarXK2toaoVCIQCBAtVp96DaTF2KrbNNRbuuEQiGOHDnC7Ows58+fN/uyzpw5Qy6X47nnnuPcuXNomsauXbuIRCKMjY1x6NAhrFarWaVdH+zuVVmvMl1KUNFr7Pf1oSpWDK2KnpvEWc/i9/v42c9+hq7r7Nmzh6mpKVwuF52dnbjdbpaWlujv7+cTn/gEy8vLrK2tYbPZ+MIXvkAkEqFcLrO8vMzs7CyHDh2iWCyax74+/ahpGmtra7eD8OIiL730EoZh0NTURKVSMY/VMAwWFhb47ne/y09+8hMKhQKf+9zngNuVI6vVyvXr13nvvfd47LHHqFarvP322xw7dozp6Wm+/e1vc/bsWbLZLJFIhK997WsMDQ0BcPz48fu6jkKIzVesG8xlG1QbBu0BlbDTgqKAUS+gFxO4jBqq0uDWrVtUKhUURUHXdQBaWlpIJBIkk0m6u7t55JFHcDqdVCoVvF4vzzzzjBk2E4kEhULh9uI1i8WcQcvn85TLZXNrsWvXrrG2tsbAwAAul4tcLgdgfk+AtrY2JiYmOHnyJPF4nLa2Ni5cuIDVamVoaIjFxUUajQaxWAxFUfjpT3+K1Wqlu7ubd999l9XVVR599FGcTqdUX4XYBBJg72CxWAgEAjQ3N/Pmm2/S19fHnj17iMVipNNpXC4XoVCIWq1GuVxm//79WK1Wc9U8QCqVYmJiguXl5fu6E6/pdearKUpalUFPF6rVCoaGUc9TzCTJ51w8//zz1Ot1FEXhT//0T5mamqKnp4ePfvSjZuuD0+k0t9BxOp04nU5z2s7lcuHz+WhqaiKbzXL48GEsFov5grA+ZdfR0cHevXuJx+OsrKzQ19dHNBrFYrHQ09NDNBolEAjw2c9+lueee45wOEw4HCYQCBCLxYhEIjz//PMMDw/T2tpqTtspikJzczOf//zn+fjHP044HMbtdtPb24vX66W1tXWj/mmFEJuo0jBYyGuU6gYBp4WQ04ICoNehUaCQyaA1NB555BE0TbtrxsfpdHLw4EHy+bxZHbXb7USjUYLBoFkBrVQquFwuyuUyra2t1Ot1SqUShUKBSqWCYRi43W4AWltb6e3tJRaLUSgU6O/vx+12EwwG8fv95o1/MBgkHo/j8/nwer0MDw+jqirBYBBVVbHZbNjtdvYMDOByu7EoilkQqFarRCIR/H7/ll57IR4WEmDfp1AocPXqVZqbm2lra6NSqVCr1dA0DavVai6eWm/8t9ls5t221WolHA4zMDCA2+0mm83e83EYGNSNBpqhYXD3c9d9Ph+PPjqMx+tD0zSzz2u99yoQCJjH2Wg0sFqteDyeu6YYPR4PPT096LqO0+lEVVWeeuop88Vk/XzsdjtNTU1mn28wGGR4eNh8YVhfRAEwODj4K+fh8/kAaG9vp7293Xz/+uesL/66U1dX1z1fNyHE1jMMaOjQ0G6/bbzv7wN+P3ujbajO4C8+/pf7s6qqalZT7xzD1sep9Y9zu910dXVhGAZ2ux3DMPD7/Xftcbv+uNz1/9Yf7+3xeLDZbHeN34DZMrW+W8Ovu4kOBgL49+0Dfrm7gxBic0mAvcN6P+a3vvUtDh06hN1u58KFC9y8eZOBgQFWV1f58Y9/DEAsFuO///u/CYfDvPzyy1itVhRFMfddzeVyH9KgdrtXyxNrgvd9fZfLBfBbbeNisVjMj4fbLxq/boHIndb7Z4UQ4l45nE5cvgCK3XfPX2O9Ynun9Rvj3+Q3jWG/Sxhd7/8XQmwNCbB3sFgs9Pb28jd/8zcEg0FsNhv9/f3ous6uXbsoFAosLy8TjUYJhULmPqk9PT3bbqWvEEJsb1K1FELcOwmwd1jfqmZ4eNh8X3NzM5qmYbPZCIfDtLW1mRXOgwcPYhjGhm9crRkauUaRQqOCVaamhBAPlPc3FAghxO9O5kD+D+t9oOuLDNbfVhTFbOrfaCWtwnhplkRtiYpeI9coYRgy6AshhBBCgATYbUlDp6RVKOs1UtU1LuVvUDPq//cnCiHEdmcAKNJBIIS4LxJgtzPDoGrUyWsldEP/vz9eCCG2sw/YkUAIIe6FBFghhBCbROKrEGJjSIDdcQxk7k0IIYQQDzMJsDuKVC+EEA8CuQkXQtwfCbBCCCGEEGJHkQArhBBikxj8ciZJqrBCiHsnAVYIIcTmkU4oIcQGkAArhBBi8yhI8VUIcd8kwAohhNg0kl2FEBtBAqwQQohNJjFWCHF/JMAKIYTYJNIAK4TYGBJghRBCCCHEjiIBVgghxBaQNgIhxL2TACuEEOJDUarrJAsaa2WNhi7tA0KIjaNu9QEIIYR4EBmslHXytToGMNRkw2cAhgRZIcT9kwArhBDiQ6EZBhUNapqBFGCFEBtJWgiEEEJ8aD6401WRFlghxH2RACuEEGKT/KIMK+FVCHGfJMAKIYQQQogdRQLstmdgGAa6LHwQQjxQpAwrhLh3sojrfUqlEpcuXeLWrVsMDAzw+uuvUyqVsNlstLS0kEwm6e/v59ChQ3zzm9+kpaWFP/zDPyQYDKIoGz8g64bBWiPLdCXBoKNpw7++EEJsLrkZF0LcPwmw71Mqlbh+/Trlcpm+vj4ikQiXL1+m0WgwMTHBvn376OnpIZFIsGfPHrq7u7l69SpHjx7FZrOh6zqapqHr+oYcj4FBXdeoavXb476M/UIIIYR4yEkLwfuEQiE+8pGPYLfbcTgc2O12crkc+/fvp7m5Ga/Xy3e+8x3S6TR79uyhqamJhYUFdF2nVCpx4sQJ/uAP/oB/+qd/olKpbNhxGZJchRAPDGkfEELcH6nAvo/VasXtdqMoCo1Gg0KhgM1mIx6P86lPfYrV1VXOnDmD1WpF13XzPwCXy8XTTz/N8PAwc3NzXL16dYvPRgghthO5ERdCbAwJsL9BNps12waWl5f5r//6L+LxOOVymebmZk6cOMHu3buJx+NYLBYURcHtduN0OikWix9KT6wQQgghxMNOAuwHaGpq4hOf+AShUIjHHnuMQCCAoih89rOfpVqt8uyzz5pVWk3TGB4eRlXlUgohxG9Hbu6FEPdHUtcHcDqdtLS0oCgKDocDi+V2q3BHRweGYZh/Pnz4MIZhYLPZpNoqhBD/pztXosqYKYS4dxJgf431kHpnMF1/3zqbzbapxySEEEIIIWQXgm3HADRdR9ugbbiEEEIIIR40EmC3mUKjyKX8DcbLs+iGhFghxINDtrIWQmwUCbDbjIZOWa/SMDQZ6IUQQgghPoD0wAohxA6gaRrFYpFGo4HD4cAwDHRdN9+uVqvYbDZUVaVarWIYBi6Xa3v26ivIGi4hxH2RACuEENucpmmMjY1x6tQpKpUKmqaxuLhIe3s7XV1d5HI5yuUyXq8Xh8PB5OQkdrudF154gf7+/u0TYs0eAkmvQoj7IwFWCCG2OYvFQk9PD5FIhCtXrvDuu++ye/duBgYGmJycJJvN0t/fT7FYpFAocPDgQTweD8VikbW1NZqamtA0jWq1agbgrSGNUUKIjSEBVgghtrn1PamLxSLz8/OEw2F2796Nx+NB13WsVit2u51sNouu64RCIRwOB9lsllqthqZpLC8vMz09zezs7FafjhBC3DcJsEIIsQOsrKwwPT1NMBjE4/GgaRr5fB5N0zAMw6yq2mw2SqUS1WoVuF29VVWV5uZmotEo4XCY6enprTyVX5A2AiHEvZMAK4QQ21yj0WB8fJzvf//7GIZBd3c3iUQCi8XC3r17UVWV06dPEwgE6Ojo4OTJk5TKZT72yiuEw2Hglw9isVqtW/zkQGkjEELcPwmwQgixzamqypEjRzh06JD5vnK5TK1Ww+PxAFAsFnE4HDidTp577jkajQY+nw+Xy7VVh/1rySYEQoj7JQFWCCF2AKvVitVqNf/sdDoxDMOspno8HvNth8MBsMWV1t9kux6XEGKnkAC7Ixjm/4QQYt2dAfXXvb29yBgmhNgYEmB3gFyjyPn8ddx6g93yAiCEEEKIh5w8SnYHMADN0KnotV/E1+1aXRFCiN+WjGNCiHsnAVYIIcQmklkkIcT9kwArhBBCCCF2FAmwQgghNpm0Dwgh7o8EWCGEEEIIsaNIgBVCCLFJpP9VCLExJMDuGAYGuuwFK4TY+RR5FpcQ4v5IgN0RDDL1Audy1xkvzSJVDCHEjiRDlxBig8iDDN5H13VmZmY4c+YMg4OD/N3f/R3Ly8v81V/9FR0dHfzzP/8zf/mXf0l7eztf+cpXsFqt/MM//ANut/tDPS4DMAyDhqHLa4AQYocykBQrhNgIUoF9n4WFBf71X/+VZDKJy+Xij//4j3n77bf56Ec/yuXLl/n7v/97RkdHmZiYoLOzk+eff54rV67QaDSA2yFT13UM48MapGXwF0IIIcTDTSqw79Pe3s6Xv/xlvv/97zM9Pc358+eZmZmht7cXm81GMBikWquxlk5z+PBhgsEgFy5c4NChQ9RqNd58802zMvvss89u9ekIIYQQQjxwJMC+j6IoWK1WnE4nTz31FMePH+fWrVt8/etfp9WrcEAAACAASURBVLm5+fbHcPfyg/Xqq9vt5qWXXuL48eNMTU1x+vTpzT8BIYQQQogHnATYX6NYLPLzn/+c1dVVdF2nqakJi8VCMpmkWCwSj8c5d+4cXV1dxGIxLJbb3RhWq9UMwUIIIYQQYuNJD+wH8Hg8HDx4kN27d5NIJKhUKnzxi1/k0Ucf5Vvf+hYDAwPE43HS6TTnzp3j6NGjqKrcCwghxG9HkV20hBD3RVLXB4hEIjz33HMA/O3f/q35/qNHj3L06FHzz//4j/+46ccmhBA7lyHrUIUQG0IqsEIIITaHhFchxAaRACuEEGILSA+BEOLeSYAVQgixiaQMK4S4fxJghRBCbCqJsEKI+yUBVgghxCaT9gEhxP2RACuEEEIIIXYUCbBCCCE2yS+aB6QAK4S4TxJghRBCbAFJsUKIeycBVgghhBBC7CgSYIUQQmwi2YNACHH/JMAKIYTYZNI+IIS4PxJghRBCbCqJr0KI+yUBVgghxOaRDgIhxAaQACuEEGKTGFJ+FUJsCAmwQgghNpmCJFkhxP2QACuEEGJzGEgLgRBiQ0iAFUIIsYnkaVxCiPsnAVYIIcTmkvAqhLhPEmCFEEIIIcSOIgFWCCHEJpEGWCHExpAAu4MYGOiGvAAIIXY66SEQQtwfdasPYLvRdZ1Go4GqqmiaRqVSwW63o6oq5XIZXddxOp1YLBaq1SoOhwNV3ZzL2DA0SnoD3dA35fsJIYQQQmxHEmDvYBgGa2trjI2NMTAwQCKR4Nq1a8TjcXp7e3nzzTdRVZW9e/cCMD4+zuDgIP39/VgsH34xWzd0anoDTQKsEGJHkhkkIcTGkBaCO9RqNUZGRvj3f/93ZmdnuXnzJtFolJ/85CcsLS2RSCTYv38/NpuNN954A6vVyttvv02tVgNuV29zuRxTU1MkEgkMme4XQmyQer1OoVCgVCqRy+VIJBIkk0ny+TzpdJqVlRVKpRLFYpGVlRVyuRyapm31Yf8G0kYghLh3UoG9g81mY9euXRw9epR4PM7+/fsZGxsjEAiwurrK2bNnmZub4/jx4xiGweDgIPl8Hl2/XRGtVCqcPn2ar371q1gsFj760Y9u+DHKkC/Ew0fTNCYnJ7l27Rp+v5/V1VV+9rOfEQwGeeKJJ0gmk2SzWQ4dOkSpVOLatWv09/fz7LPPEovFgF+2R2matrU313JfL4TYABJg72CxWHA6ncAv2wlGR0cZGhri8OHDfP3rX2dqaor/+I//IBqNoigKhmFQr9cxDAO3283LL7/Miy++yOTkJKdOndriMxJCPAjy+Ty3bt1iYWEBXdfxeDx88YtfpLm5mVQqhaqq7Nmzh9nZWTKZDIcPH8btdlMoFIjFYui6TqlUIpvNsrKyQrVa3bqTUSTBCiHunwTYX6NarTI+Ps6ZM2f43Oc+x9WrV6nX69RqNQKBAIqiMDs7SzabxWazoShSGxVCfDiCwSAHDhzAbrejaRq1Ws0cnwKBAHv37sXpdKJpGlarFavVelelVVEUVFXF6XTicDiwWq1bfEZCCHF/pAf2fVRVJRQKkclkeP3117l27Rrf+MY3sFgsfO973+Ps2bN85jOfoa+vj2984xs4nc4NfzEwZI5NCPFrNDU1cezYMY4cOUI8HsfhcFAulymXyxiGgcViMUPuenuToig4nU5CoRDBYBCbzbbFZyE3/EKI+yMV2PdpamritddeA2D//v13/d0TTzxhvh2Px3n66adxOBwbugNBQ9coa1WJsEKIu1itVhwOB2tra8zMzLC2tobFYiEUCrG0tESj0cDtduNwOMhms6iqagZYIYR40EiAvUdWqxWXy7WhX1M3dDKNHNPlhOz1KoS4SzAYZM+ePVitVgqFAqlUinA4TDAY5NatW2QyGXp6elAUhcnJScLhMG1tbVt92O8jt+ZCiI0hAXabMQxDWgiEEL/C5XKZN82RSIRdu3aZfxeNRu/62N7e3k09NiGE2GzSAyuEEGJzGNxRhJU+WCHEvZMAK4QQYnMpiuRXIcR9kQArhBBiE9xVfhVCiPsiAVYIIYQQQuwoEmCFEEJ8+KT4KoTYQBJgdxjDMKgZdWpGfasPRQghfkfGL3pfpQFWCHF/JMDuMHWjQaq6RqKyLNttCSF2MAmxQoh7J/vA7jCaoVPUy1Qa+a0+FCGEEEKILSEV2B1HkbqFEGIHMsAwftELK6OYEOL+PHQB1jAM8/ngd74thBBbaX08MgzD/PP62w8cya9CiPv00LQQGIZBrVajXq+ztraG3++nXq/TaDRoamrCarVu9SEKIR5ChmHQaDSoVCqUSiUsFguKoqDrOj6fz3x8rBBCiF96aAJsPp/nvffeA2BkZIRoNEo+nyccDvPKK6/smAArhQshHiy5XI7Z2VlSqRTLy8tUq1UsFgt+v59HHnmEzs7OrT7EDaYgI5kQ4n49NAF2cXGRf/mXf2F4eJiFhQXOnz8PwAsvvLDFR/a7e0AnFYV4KC0uLvI///M/rK2toaoqqVQKq9XK4cOHt/rQPgQGKDKCCSHu30MTYBVFQVVVbDYbuq5TKBRoNBqsrq5KH6wQYssoioLVasVms2EYBuVymUajQTqdplqtbvXhbTCpvgohNsZDE2DX+8zq9bq5MEJVVex2O4oiA6oQYmvcOTYpinJXoLVYHqR1tlJ5FUJsnIcmwNpsNoLBIABOp5OmpiYcDgeRSOSBDbCNRoNqtYrVamVlZQWLxYLL5cLv92MYBqqqous6tVoNRVFwOBz3/T0Nw0DTNCqVirkYpVwuEw6Hzb9bXzxntVpRFMVcpFKr1ajValgsFnK5HAB2ux2/34/FYqFer6PrOjabjUajgd1uN1/g1ytXtVrN/He+85jWv6fb7TavTaFQIJ+/vZ/ueoXe7/ebHyPEZrDZbHi9XkqlEoqiEIlEsNvtxGIx7Hb7Vh/eBrv3EKvrOo1GwxzXKpUKqqricrmw2+2oqmqOE5qmYbPZ7nttg2EY5himaRqqqqJp2l3jZa1WwzAMcyyyWCyoqoqiKOaYtj7+ALjdblwuF5qmoes6drudRqOBYRh33bSsn6fFYsHhcNx1M7M+FlqtVnMcLZfL5PN583gAPB4PPp8Pm832G89x/Tz/r9fC9dnKB+vGSuxUD02AbWlp4ctf/jKlUonZ2VkikQiNRgNVfTAvQb1eZ2Zmhrm5Odrb23nnnXcAiEajHDp0iOXlZbq6usjlciSTSaxWK729vaysrFCpVGhqasJmszE/P4/f76e9vd0c3HRdJ5PJkEgkCIfDOJ1OVldXaW1tNVdTj46OEgqFsFqtXLt2jePHj+N0OikUCkxOTlIoFPB4PHi9Xg4dOoSmaSQSCebn5wmFQly/fp1AIIDD4WDPnj0Eg0ESiQSFQgG/38/q6ipDQ0NYrVaWlpZYWFhgZWWFdDrN0NAQwWCQtrY2M6QnEgnW1tZ45JFHzB0p5ubmGB8fp1AooGkaXV1d9Pb2EgwGWVxcBG7/3KiqSrFYxO1243a7yeVyVKtVotEoiqKQyWSo1Wq0tLSY16dQKJBMJsnn8/h8PlpbW+/a9UKIda2trbz88sukUinS6bR5M+V0OrFarWa4eJjpuk46nWZxcZFqtUomk2FxcRGv10tzczOBQIBgMIjD4SCZTFIoFIjH4zgcDtLpNDabjUAgQLlcplqtEgwGCQQCZsAtl8ssLy+jaZoZLg3DwOv14nQ6GR8fJ5PJEAwGKRQKKIrCrl27sFqtzMzMmOOS0+kkEAgQi8WwWCzMzs4yNzdn3rCvjxP9/f2srKxQrVbx+/1ks1kcDgetra1UKhVWVlZYXV1laWkJVVVpa2sjHo8TDAZRVZWlpSWKxSLRaNQ8j0wmw+TkJNPT0zQaDbxeLz09PfT19VGtVimXyzidTjweD9lsFl3Xcbvd5vcJhUK0trbicDjMn7darUYul8Nms1Gv11laWgJuj4t3Xj8htsKDmd4+gNvtpq+vj+vXr9Pa2kpnZydOp5PFxUXq9fpdv7QPgmKxyMWLF7l+/TrPPvssbrcbp9NJMpkkk8lw+fJl7HY7iUSCiYkJ7HY7hmFw4sQJGo0Gvb29tLe388Mf/pB9+/bx2muvmZXNQqHAmTNneOutt9i/fz+RSISTJ0/ymc98Bp/PRzab5fLly3R1dVGr1ZienubKlSs4nU4qlQrf+c53sFgsBINBnE4nAMFgkNHRUUZGRujt7SWZTBIMBslkMqytreHxeEgkEty8eROfz4fdbufAgQMUCgVOnTrFd77zHXNwP3XqFE888QSf/vSnsdlslEolUqkUk5OTDAwM4HQ6cbvd7Nu3j+7ubt577z2y2SzPPPMM9Xqd0dFR8zo8+uijhMNhrl+/zqFDh+jq6uLSpUuk02leeeUVyuUyP/3pTykUCnzpS18Cbr/YLi4u8sYbb3DlyhXa29v5+Mc/zuLiIhaLhRdffPGB+lkT98ftdtPa2mrOhITDYTweD+VyGYvFYlbaHhy/ex9svV5nYWGBixcv4nA48Hg85r656XSafD5PJpNBVVUmJydJp9Nks1lqtRrXrl3D6/XS3t5uBr/h4WEeeeQRAoEAALOzs5w8eZJqtUooFKJYLGKz2RgeHiYQCDAzM8PKyoq5T6/FYqFaraKqKm+99RYzMzM0NTURjUaJxWLs27cPr9fLpUuXuHLlCq2trezZs4dCocDq6iq7du0ilUqxtLSEoijU63X6+vowDIPR0VHefvttZmdnzRmrWCzGSy+9xCOPPIKqqiwsLJhB2maz4Xa7aWlpoaWlxaxUDw8PEwqF0HWdy5cvc+vWLfr7++np6eHChQvouk5fXx9jY2OcPHmS/v5+XnjhBdra2syft5mZGW7evElnZyf5fJ6RkRGy2SxHjx7l8OHDeL3ejf7hEOK39tAE2FqtxsTEBG+88QaaptHU1ISu6+RyOTo6Oh64X0SHw0FLSwtLS0tYLBZmZmYYHh42B94DBw4QDAap1+vY7XZz6t7lcvHUU0/x7W9/G5fLxcsvv4zH4+HGjRscPXoUwzBIpVKsrq7ye7/3eywvL5NIJKjX6ywuLtLV3c3q6irNzc1UKhVSqRQvvPACDoeDt956y7zj13WdfD7PzMwMCwsLfPrTnyaVSnH9+nVu3LjBz3/+c5xOJ4cPH+bzn/88a2trnDt3jnfffZdYLMYnPvEJLl68SDQapbm5mccff5xAIIDP56NcLnP06FFsNhtzc3MsLCxgs9nIZrOMjY0RiUSwWq2MjY1RLBaZnJykWCzicrkIBAIEAgEzcM7NzaEoirnob3Z2lhs3buD1ekmlUqytrTEyMkI8Hjevvaqq7Nmzh46ODi5dusTKygq5XI7R0VGGh4dZW1sjEols4U+H2E5qtRozMzOcPn2aVCpFKBRCURQsFgtHjhwhFott9SFukHtvH7BYLAQCAdra2sxp8nq9TqVSwe/3mzfDbrcbXdeJRqPmTfljjz1GtVplbGyMYDBIV1cXNpvNXCBnGAbZbJbW1lacTifz8/NkMhkikQgWi4Xl5WU8Hg82m42xsTGz4gtQKpXMamkmk+HWrVvU63Xm5uYYHh7m5s2bXLt2jQsXLvC1r30Ni8XCpz/9adxuN9euXWN0dBSr1UpnZyeqqqKqKrVajaGhIdra2rBYLJTLZQKBAN3d3WiaxuzsLIlEAqfTyfT0NIVCgZaWFtLpNCsrK1y8eBFN08jlcgSDQWKxGKlUikKhgK7rTE1NMTMzY7bSDQ4OAtz1gB+4XQQ5d+4c6XSatrY2urq68Hq93Lx58wFsbRE70UMTYEulEmNjY3g8HgYGBiiXy5w5c4aBgYG72ggMw6BSqZjTRYlEgkajQU9PD7lcjrm5Obq7u7HZbMzOzmK32+nq6tp2PUGappm9UJqmEYvFzOnJ7373u2QyGb7whS9w/fp1+vr6sFgs+Hw+/H4/yWQSp9OJpmm0t7dTLBZJJBLm117v14rH4+aK6fXrtphImH21wWCQUCjE4uKiOTWmKApdXV0kEglUVeX48eMMDQ1x5MgR3nzzTbMnua2tDbfbjc/nY3R0lGQyyenTp81/g/HxcYaHh3n++efNakEymWRlZcWcytM0jfn5eebn5+nv78dut7O0tMTo6ChNTU184xvfoFAokM1mqdfrXL9+naGhIT71qU+hqirZbJYDBw4QjUaxWCw0Gg3m5+cZHR2ltbWVH/zgB/T29uL3+9m1a9evXP/1CpDX62VmZoaxsTGsViuapvHiiy9u6s+D2L7Wf78Mw2Dv3r0oisLk5CR+v/+Bu7G+H3a7HU3TyGQy+P1+PB4PiqJw8+ZNEomEOcu2HjYDgQAul4vp6Wnq9brZNgCYLQKAuR7A6XSiKAputxuv13vXThC6rpvB2Ol0srKyQjgcplgsAhCJRKjX63R3d9PX10d7ezuhUMj8d1w/llqthq7rnD9/nlOnTrG0tESj0eDMmTOEQiFeffVV4vE4hmGQz+fJZrNUq1Xz89fHs0ajgaIo5HI5isUi2WyWq1evcunSJaanp9F1nVAoRDAY5JVXXmFgYACPx4PT6WRkZITFxUUKhQIOh4PBwUFSqRRutxur1Wq+lk1NTZHJZJiZmcFisfDss88yPT3N2toa/f39D2z7ndg5HpqfQI/Hw4EDB5ifn+c///M/+ehHP8rx48dZXl42+5fWG+EvXLjAxMQEjz/+OD/4wQ+w2Wy89NJLjI6OcuHCBZ5//nmi0Sjf+973aG5u5vd///cJh8PbZ1rYMJienuKb3/wmbreblZUV3G43nZ2dVCoVPve5z/Hmm28yMDBgTvH39fXR1dVFoVDg9ddf57nnnqNYLDI/P4+qqjgcDnRdNxcvOBwOFhYWKJVKHDp0iL6+Pk6cOMHS0pJZ6b2zh69YLOLz+VhZWeHHP/4x/f39HD58GE3TAEin0ywsLNDR0cHBgwcZHh6ms7OT9o4OYtEoVquVS5cucfnyZQKBAM3NzTz55JPk83kuXLhAvV7n8uXLZLNZhoeHKRQKZntCb28viqLg8XiIxWLUajWeeeYZ8xzXWwg+9rGPoes6S0tLnD17FlVV2b9/v9kPqygKXq+XAwcO0NbWxpkzZ2hvb6e3t5dSqUS1WjV3tWg0GiwsLFAsFtm3bx+1Wo3nn38en89HqVTash8Nsf2s9yrOz89z+vRpOjs72bNnD4qiUKlUqNfrD0YLwT0XYA2y2dttT6+//jqFQoFdu3bhcrnw+Xz09vbS19eHzWYjGo0yNzdHqVQiGo3i9XpZXl6mVCqZPZvVatW8sV9vB1hf6GkYBtFolMHBQW7dusWlS5eo1+v09PSY48d6D2q9XkdVVdLpNO+99x6PP/44wWCQSqWCy+UyA+L+/fvp6OggEAhgt9vp6emhra2Nxx9/nFQqZYbg4eFhent7GRkZ4dKlS0xMTDAxMYFhGLS1tZmh1ul04nK5zCJCOp3G6/XypS99ib/4i7/g1KlTZgtBOBwGYH5+ntXVVeD2Iubh4WEymYy50La7u5t8Pk+hUDBb6nK5HD09PRw8eJDl5WWmp6cZHBxE0zQz2K+PsUJshYcmwJbLZa5fv87CwgItLS2cOXMGgCeffJJgMGiGz2KxyPXr181FAk1NTQwPD/Ozn/2MXC7HH/3RH/HWW2/R1tbG/v37iUajTE5OEggEUBSF1dVVZmdnSSaTW7K/rKHV0CprlDIparUag4OD9PX18dWvfpVMJsPhw4fp7e2lWq1y69YtRkZGOHHiBH/+539OOp3G5XLR0dHB0aNHuXbtGm+//TYdHR0MDQ2ZQT8SidDa2srFixcJBoMMDAxQqVQYHh42V9+uLzxpb2/H5/Nx69Yt9u7di2EYzMzM0NnZSWdnJwsLC+YU2bFjxzh58iRjY2Pk83lsNhsLiQSDAwNmBXx5edlcaXz9+nXcbjfVapWnn36arq4urly5Yj65qFqt0t3djdPp5MqVK1itVgYHB+nt7QV+uTBkaWkJn88H3K4uz83NkclkePzxxykWi+ZOCB6PB7hdCapWqwz84rgmJycxDIN0Oo3P5zM/bn1Xg+bmZhYWFszK9oMzJSw2QrlcZmpqioWFBSwWC5OTk4yPj3PgwAH27t27IbuDbBsGv1sLrFbFaBQppJOsrqSIRqP09PSwvLzMyZMnCQQCPPnkk4RCITweD8vLy1y9ehVVVWlqaqKtrY2mpia8Xi+1Ws1c4LVeza1Wq2YPqa7rVCoVc71AOBw2V/ZbrVZ0XUdVVeLxuHkz39TUxHPPPUdTUxNdXV1myDQMg76+PgBGR0cZGxvD7Xajqqq5gHW9HSAQCFCv17l69aoZsFtaWggGg8TjcRRFIRaLkc/nzcW04+PjlMtlfD4fHR0dWK1WXC4X5XLZDKZ3vv7Y7XbzscThcJhcLmeG9omJCVZXV2lrazN3RLDZbLS3t1Mul7l16xaBQIBMJsPIyAiGYRAMBn/jzgZCbIaHJsDWajXm5+dJpVL4/X5yuRz79u2j0WhQq9XM0BGNRnnppZf4z//8TyqVCr29vYRCIfMud30hUqlU4sCBA1itViYnJ83m/pmZGX784x9TqVTo6OjY/BNtFKgvv0fMXeX//b8/o1gscf36dQ4ePIiu63i9XqrVKseOHePdd99lcXGRffv2MTo6SktLCz09PUQiEZxOJ729vdRqNdxuN/F43Aywfr+fwcFBLBYLTU1NtLe3m1WLfD5vVlvXWwCWl5epVCrs37+fVCrFM888g9/vN6f7HQ4HqVTq/7N358Fxnee957/nnN437DtBgiDFVSRFarGs5VqbYyVONF5y47mOk+tUppI7mUzG987UlDOZSunmnztVt65vJZOqXHtmbCuObTnWUqKsaLMoiZRIiqTEnQQXgCRAkAAaS6P3Psv7zh/NbpEUd4IAmnw+KlAklsbbjcbbv/Oc57wv4XCYrq4u/H4/iUSCsbExGhsbSSQSQHkSXrVqFU8//TRjY2OcPn26elosmUziOA6f+9znmJiYYPfu3Tz88MN0d3czNDREOp2mra2NUChUrRo4jkMymSSdTnP33XcD5dC5aNGiajW+UsmpvPhUXkxs26azs5NwOMzSpUuxbRufz0epVKqewlyyZAmu6xIKhVi7dm11RYPOzs7Zf16IeatUKpFMJhkZGSGXy+Hz+WhpaSEUCmHbdnX5pjuRdjKo9AABJ8W61ctYvmI1J06cIJPJ8MADD1TbnipLA46OjlbbfQYHB2lvb2fp0qVEIpFqm9TU1FQ11FaWGVy8eDGmaZLL5ejo6KChoYHW1laWL19e7S0tFAo0NDRUfyaVFVg6OztJJBLVVgPbtkmlUkxMTOD3+1m8eDHBUIix0VEcx6ku71WZV5csWUJraytnzpwhk8lUrxPI5XLlyitw5swZotEo9913H8FgkL6+PuDTYFo57V/p1Y/H4xdU7Ss9wn6/n46ODsbGxvA8j6amJorFItlstlqEqbSELVy4kHA4zIIFC6otDJOTk9VK9211YCVqkqErjUC3uUwmw86dO6s9R5VfzFgsRlNTE62trdVJYHBwkBdffJF169ZRKBTo6enhlVdeIRqN8sUvfpFf/epXLF26tLqWbDKZ5KmnniIQCFSvAB0YGGDr1q1861vfuuaGd6UV/fkhXhzbhKvPr96WyxZR5bKylKc1UIfZ9hDrEssxLipl6NIk3vgejGADVvM9zKddbypLbJmmWa00xONxXNfF87wLTkddaumgykHCxadTL/X+85/WxWKRYrFILBaTqoG4YSMjI+zfv5+WlhbWrFkzY6f10+k0R48e5dSpUxSLxWqVvrGxkfr6+mrf5UxQSjEwMMDAwABLliypno2YaeN5xcdnSxxMOliGwbo2P/e0miRKA6jiKGbdXZiRqx/I6eI4Kj0AVhAz0Yvhj1/682Z5qbGL14etVHSB6nqq56/pWpmPzh9jpUJ6qfVXL/5YZa3WSmW1sgJBpW9ViJ/+9KesW7eOZcuW3TEX2d0xh/XxeJwnnnii2vsEVH/xL548LMuisbGR5uZm3nnnHTKZDEuWLCGXy3Hw4EGi0SgdHR3s3LmT+vp61q9fX72tyiLWt3JScZRLyc2htMaaL32318Dn811wUUrlCN7v938mWF7qxehyF8pd6v3nf304HK5uliDEfJNIJLjvvvsu6Ak3TXPeXRh6rTSVxfEv99GZ3052tq8/qHy/a51Xrmc+u9THzg+5pmlWz0oJcSerzRnyJlQWCa+cDr7UxBKPx1m3bl11vdhisciTTz7J/fffTzKZ5POf/zyLFy+moaGBQCDAXXfdNYtHwZqcKnK6NIaj3Vn6nkKIW+38ualWw6vtacZyHmcyHnnn4hB7R5zsE0LMkjumAns9EokE99xzDwBf//rXq+9vbm5mzZo11X//wR/8wayPrUyjtOIO6f4QQtSIrK05MOpwctrFUxJZhRC3Tm0e5gshhJh3lAZPl/8/+2uwCCHuJBJghRBC3HpSjhVCzCAJsEIIIWZR7Vx4KoSYvyTACiGEuOU0UoQVQswcCbBCCCGEEKKmSIAVQggxC86vwUobgRDi5kiArUEacLVHwSuh5aScEKKmSHgVQtw8CbA1SGvNtJthoHAaT3lzPRwhhPgMrcFV4Hga2yv/XZauFkLMFAmwNUijmXZznCicwdUSYIUQ84+nNSVXM13SnM16JHMeJU8SrBBiZkiArVUzv524EELMCK3Lb0pD3tEMZzzOZF2KrgRYIcTMkK1khRBCzBilNXlHk3M0jrroWFtTLpvIwbcQ4iZJgBVCCDFjlIaMrUkVy5vJXhBe5aJTIcQMkRYCIYQQM+cqOxZI95MQYiZIBVYIIWrA9PQ0ExMThEIhlFIkk0mi0SjxeJzx8XFc16WtrY1SqUQqlaK+vp6Ojg5CodBcD/0iEmGFEDdPAmyNkRNwQtx5SqUSx48fZ//+/TQ3N6OUYnh4mLq6OhoaGhgeHkZrTXt7O6lUimw2y8KFCwmFJruWxwAAIABJREFUQnR0dFRvR2uNnrO1rLTkViHEjJEAW4MkxApxZ1FK4bouPp+PYrGIYRj09vZSLBaZnJykp6eHaDTK8ePHSafT3HXXXQSDQYrFIgCO4zA8PExfXx+Dg4NEIhGWLFlyS8Z6xflJIyFWCDEjpAdWCCHmuXA4TFdXF+3t7YTDYQKBAD6fD8/z8JQiGo0SDodxHAcA0zRRSqFU+UIqz/OYnp5mYGCAU6dOkc/nZ3yMJVeTzHmMFxQlJYfZQohbSyqwQghRQ0zTRGtNLpejVCrhsywmJiawLAvDMLAsi0KhgGEYuK4LQCgUYt26daxZs4aBgQEGBgZmfFw5R3Nq2mUo7VFwJMAKIW4tCbBCCFEDwuEwra2tAOTzecbGxojH49TX1zM5OUmhUKC7uxvXdXEch3A4TDQanbXxKQ2eAq2u8onSQiCEmAESYIUQogbU19cTjUYxTZNCoUBbWxvBYJB4PE4mk6FUKtHQ0IDWmqmpKaLRKE1NTbMyNq0h7yhSJXWV7WI1aFmFQAhx8yTACiFEDbAsC8uyAAgEAtTV1VU/Fo/HL/jchoaGWR2b0pqMrZnIKwqyXawQYhZIgL2CUqnEmTNnyGazWJZFNBolk8kQi8Vob29ncnISwzBoa2vDNOV6OCHEHUxfbYUUCbZCiJkjAfYKPM8jnU4zODjIwMAAra2tNDc3V9dh3LJlC21tbdx33300NTVhGHJaTAghrkimSSHEDJCy4RWEw2FWrlzJihUrSKVS7Nu3j7Nnz2LbNidPniSfz+P3+zl69Cie51WvDB4ZGWFiYmIOFwwXQoh5SqZFIcQMkAB7BYZh4DgO4+PjrFq1ihUrVjA6Osr7779PKpXivvvuo6enh9OnT6OUQmuN4zhkMhny+fytDbBa42mPknJu3fcQQgghhJiHpIXgKqanp+nv7+eRRx7BdV201vzTP/0TgUCAUqmEbdvV8GqaJvF4nGAwiOd5nDx58paNS6NJORmO54dYl1iGz7Bu2fcSQoibp8tv0molhJgBEmCvwrZtstksAB9++GF1+Zqmpibef/996uvrWbt2bfXqYMuyCAaD+P3+WzouhWbKzTJQHGZ1rBefJQFWCDE/ldzyCgVTliYS1oTmekBCiJonLQRXoLUmHo+zdu1a6urq6OnpIRAI8Pjjj9PT00NbWxuhUIhVq1ZVA+xsk1qGEGIuKQ2eBk/rS7a3asq7dJ1Oe5zJuJRkmS0hxAyQCuwVGIZBU1MTDz30EABf+MIX+MIXvgCUw+0f/uEfopS65dVWIYSYj7SGqYLHmazHUNq7bDjVGhyv/KYUyKG3EOJmSYC9QZU9x+eq8iqEEHNNo5koKA4lXZJ57yqbGOhykpXwKoSYAdJCIIQQ4oZUFlopupqpgqbgyCpZQojZIRVYIYQQN0xrKDiKVElhe+AzZKEBIcStJxVYIYQQN8U493b17WSFEGJmSICtMVLYEELUpnPRtpp2hRDixkmAFUIIMYskwQohbp4E2Bqm0WTcPKdLYyit5no4QghxFdJgIISYGRJga5jSiglnmqO5U7jam+vhCCHEJWnAUVBwNa6WECuEuHkSYGucoz3yqoRCKrBCiPnL8TQlDzyZqoQQM0ACrBBCiFkk/a9CiJsnAVYIIcQskfYBIcTMkAArhBBCCCFqigRYIYQQs+PcRgdShxVC3CwJsDVOo8l7RaaczFwPRQghrkBje5CzNbarkcUIhBA3QwJsjVNakfXyjDtTaKlrCCHmMUdp8k55NQKZrYQQN0MC7G1AaYWrZB1YIUTtkAArhLgZEmCFEEIIIURNkQArhBBilujz/hRCiBsnAVYIIcQtZyBbGAghZo4EWCGEELOgvIaW7UHB0bhK6rBCiBvnm+sBiE95WlFUDrJVuBCiFngabE/jaq5pWSwFjBcUTsrFDClaoxaGlGWFEDdAKrDzhEYz5aQ5nDuBo9y5Ho4QQlyR0jCeV/RPuUwWFNdaUM3ammRekXdk4T8hxI2TCuwV5HI5jhw5gmVZBINBJicnyefzRKNRurq6+OCDD+js7GT9+vUkEgmMmyglaK3JenlOl8bw8LDk2EIIMY9prcmUFKM5RcaWMCqEmF0SYK9genqaTZs2oZSip6eHs2fPsnz5cvbt20c+n2dycpLGxkaOHDnChg0b8Pl8eJ6H67q4rlRRhRBCCCFuBSnzXYHf72fBggV0dXVx+PBhHMdh6dKleJ7H5OQkGzZsoLe3l8HBwWpwHR4e5t133+Xjjz/G82RzASGEADCkRiuEmEESYK8gHA6zdu1a1q9fTyaTwbIstNZ4noflKxevlVI4jgOAYRhEIhHa2tpobGy8qZYCIYS43RhQXgRWsqwQ4iZJC8EVFAoFDhw4gG3bmKZJIBDgk08+oVAo0NLczNatW+no6KCrqwvTNLEsi+bmZhobG4nFYoyMjMzKODWgKPegSWQWQsxX5ewqK8IKIW6eBNgriEQiLFu2DMdxWLJkCZFIhImJCRYvXsyiRYvI5/MEg0HuvvtufL65eygLqsiJwjDtgWY6DCmqCyHmqwt34tJy1C2EuEESYK8gGo1yzz33VP/teR6FQoFwOIxpmjz22GN4nkc4HJ7TdgFbOYzZU0w4KToCjXM2DiGEuJxK3VVpGM0pjk+6JIIGjWFZC1YIcf2kXHcdLMsiFothWRaGYRAMBolEIvOg19UANEq2QBBCzHMKSBUVZ7IeWVl+SwhxgyTACiGEmDWVa7i0lmu5hBA3TgKsEEKIWSBxVQgxc6QHVgghakwqleLQoUNMTEzQ3NxMIBDANE26urrwPI8zZ87Q2NhIV1cXgUBgrodbdX6zVcFRjOU8on6D+pCJ35rrViwhRC2RAHub0IDSCq2lyiHE7S6TyZBMJrEsi0KhwNGjRwkEAoyPj5PNZimVSjQ3NxMKhejo6ADKa1Z7nofneXMyT5wfTz0NIznFnhEHrWFVi18CrBDiukiAvS1o8l6R/vwwzRo65VSdELct13UZHx/n8OHDuK7LggULiMVi1NfXMzw8TCaTYeHChUB5LWuAUqnEiRMn2L17N0NDQ7S0tLB06dI5GH258VVpyNqa8bwiY2s8mbKEENdJemBvE7ZySDpTTDnTEl+FuI1VWgUee+wxFi1aVN0wpbGxsbp9dSQSwbKs6tdYlkVDQwPLli1j6dKlxGKxORl7mWxkIIS4eVKBvU2Ur+zVKGkhEOK2ViqVKJVKNDU1USwWGRkZYWpqinQ6jVIK0zRxXRfXdauB1ufz0dbWRktLC3V1dQwMDMzIWHT1j+v8mnNcrSm6mpKnURpMybVCiGskAfY2kveK9BdO0+pBe1A2NBDiduTz+Uin07zzzjuk02laW1sZHh6mv7+f1atX4/f72bx5M+3t7dx11123ZAxaQzKvODrhksx7qBs8bs7bmlPTLu0xi1jAJOqXBCuEuDYSYG8jtnIY90pMKx9tcz0YIcQt4ff7WbBgAY8++iiO49DS0sLk5CTZbJZFixYB0NvbSyKRoK3t1swEGkiXFCNZj4ytuZYTP4bx2U9yFKRLmnRJ4XoaJMAKIa6RBNjbSHWBcOmCFeK2VldXx/r166v/7unpueDjlSB7q3YJ1Frf8EYE53+NxFUhxI2SACuEEDVu7rezvh6GHGILIW6arEIghBBiTmig5JaX05osKBxZT0sIcY0kwAohhJgVRrXR6VN5RzOc8Tib9Sh6czMuIUTtkQBbQ2rpJKEQQlyKvmgm8zQUXU3RBXWjyxkIIe44EmCFEELccsYF/zc+834hhLgeEmCFEELMAn3en0IIcXMkwN6GZDMuIcT8JCFWCDEzJMDeZpRW2NrB1e5cD0UIIS5gXKZhQCkYybrsHXU4mXIpuRJxhRBXJuvA3maU1nha4Wk110MRQohLuDDEaiBjK45MaCYKCtMI0Bg2CfqkO1YIcXlSgb0NFZTNqD2Jq2RNGiHEfKIvuVOgoyBra3K2xvGkDUoIcXUSYG9DnvbIeQUUUoUVQtwamusLmldbd0DqrUKI6yEtBFeQz+fZsWMH27Zto7Ozk4aGBnbt2kVPTw9PPvkkb731FoFAgK9+9avE4/F5s51j5TKJS1U6hBDiZuUczWhOkS4pvBs5TpapSQhxk6QCewWO42AYBmvXrmX//v309/ezdu1aVq5cycjICKVSic7OTvbt24frli+a0lpX3+aSpxVpJ0fKSUuQFULMKNuDnK0pedefRT+7F9eFlMxYQohrIAH2CqLRKOvWrWPp0qXYtk2pVCKRSLBt2zYmJydZsWIFixcvZmhoCKUU+XyeN998k29+85v89V//NcVicY5Grkm7OXalD7M7c0R6YYUQM+56Wwg+uwfXZ+UcxcExm11nbJJ5b84LAUKI+UtaCK7A5/NRLBbZvn07v/u7v8uCBQsoFArs2rWLYrFINBrFNE1KpRJaawKBAGvWrOFP//RPGR8fZ3p6ek7GrbVmys0wkD/JonAHWnphhRBz7MIe2EtHWceDiYJmNOdRcHzowCwNTghRcyTAXsH09DSffPIJgUCAlpYWtm/fTkNDA/l8npaWFnbt2oXjONTX12OaJj6fj66uLjo6Oujv72fLli1zMm4NuNqjqOw5+f5CCHFJBhhXKKpW2gu0lpUIhBBXJgH2CkzTJBqN4nkeyWSS7u5uisUiX/nKV+jq6mJ0dJR0Os0DDzyA3++f6+FegoGnFLZyCZhSyhBCzD3JpUKImSAB9goikQjr16/Htm0syyIYDGLbNpFIBNM0eeKJJ3Bdl8bGxnmzAsH5lFacKSXZlT7MI/Xr8Jny4xZCzBWJrkKImSOJ5gosyyKRSFzwvkgkUv17Q0PDbA/pumg0BVVi0p2WNWGFEHOq3PkqIVYIMTNkFYI7gD63vawQQtwsx9NMFz1SRQ9HSSAVQswNCbC3OU8rhktJdkwfxNWynJYQ4ubkHM2paY/htEfRvbEAK7FXCHGzJMDe5jSavFdkwp1GSRVWCHGTPAVFF0oe3HgB9srXDNiepuBoXJmyhBCXIQH2jiJ1DyHE3Lradgau0gylPfaOOZzJeNcdYj1VbnOQ7gYhbm8SYO8AnlZMO1lG7Im5HooQ4g51+e0LyjTljQzyDqRLmsNJh0/O2iTz6prXhPU0nEy57B11GM97EmKFuI1JgL0DaDQ5r8i4nZI2AiHEDcs7msG0y1DapXDd/a+VbQouT+lP34quJmMrbE9f87kjrTV5R5EuKUo32J8rhKgNEmDvEBkvx4FsPycKZ+Z6KEKIGqSBnKMYyXqM58vB8vpd53rZ5wXa6+mAUvpcK4GSVgIhbleyDuwdwtMeWa9A3ivM9VCEEDUoU1IcGXc5PO4yXbr20/oXur4vUrrcE+soTabgMZ1zifoNmsImfuvyYThVVHx0xqY9bbGy2UdLxGIe7jUjhLgJEmDnibxXZLiUxLtlS10ZaDSuVmit5+XOYUKI+ctRkLU1eUfj3WAnknHVTthPKQ0lT5NzNLarGcspjmcc2qIWUb+J37r819qeJmNrQj4D2yvHZpnxhLi9SAvBPKC0YtKZ5lDuBEVlc+0dX9dDk3HzHMge56S0EQghbsDNz0zX3gugNGQdmCooJguKVNFjsqBI5j3StrpqiNaaG6wSCyFqgVRg5wlXexRVCX0LZ9xyG0GejJdHo89VQ4QQ4tarzDb6GjeU1YA6V/U9kHQ44TqMuy6pkklT2KQuaBILyBwmxJ1KKrB3EA2k3Rz7ssc4VTg718MRQtyxrj14ag0FR5MpKYqupuRqSh54Ul4V4o4mAfYO42qPjJsj4+bneihCiDvKdS4lcAlSbxVCVEiAvcNoyhsbnCkl2ZM5iifrwgohZoNxfRdxXY6noOQpbFeWyBLiTiY9sDXoalsxXk3ay7Mve4x4YRitFStjvYTMwAyNTgghPsuo/HETp/61hsmi4oNBm4Epj3Vtfla1+IkFTLQuB1rJtELcGSTAzgMKjXPLls+6xPfTirxyyXlFPkjtIWmn+Hz9WkJmAL8pTwkhxIWKrmY06zGSdSne9A5XN3cA7now7Wkc5VIfNFgQtxjLepyY9mgKm7hSlhXijiBpZY5pNCP2BB9O7yXvFWf1eys80m6efbljnCqepTe8gC80rsdnyNNCCPGpgqMZzniMZNVNBtib74OtUKq8Nq2tymvFpoqKkM/Ad1FjnNblz8UEU5pohbhtSFKZY1prbM8m4+bmpB9Voyl6Nq6apjlQj6s8DNPAxJTNDoQQACjAVeDNwNqq17qM1tVvB0ayHu+eLFF0NT4D2qImaOPcxzUZW3F8yuFMxqU+ZNKVsIj4TQmyQtwGJMAKoHxhV9Ke4oPUXgpekVWxXnojXbJWrBBi5sxcARZXQTKvSBUVPhPiQZPJgsIyyi0Pjgenpz2SOUVzpLxz18GkwV2NPpY0+AkHZHYTopZJgBVAuVox7qSYdrOAQcrNorRiQaiNsBWc6+EJIeaI1pAqKE5nXDKlGz9LdCvCYnm7WbAVFD3FVNFB6fJKBYahq9ViW2niAROfqakLKoqugwY6YiaNYZOQz8SSNXmEqCkSYEWV0oqSdgA4UxrjjYltLAy1c198FUOlUVztcl9iJYZhoLQiYAawDJn1hbidKV0OgEVHc3PXb93s+ilXuGVdbm/wlMZV5SKvZXza8zpVUKRLCjDI2JqwDzJ2eTwrmvys7/DTEjEJ+kw8pfGUxjINfKaBdFIJMT9JgL1Bnudx6NAhXn31Vb7yla+wfPlyLMua62HNGEd7TLlpprNZhotjeCgUiqHiCDFflJIqsSK6mCXhBZiGQcDw42gXjSYoS3IJMWcmJibYuXMnU1NTPPDAAyxZsuSGb0sDY3mPg0mH0ZxCqZm4EOrm14K9Xq4qv0F5NQV1LvBaBuQdm6OTDvGgQWvEBAzG8wqlYXGDxcomH4ZhcCLlknPKvbamCW1Ri46YRchv4DMM/JZRfWxcpfEUWKaBZcoGDELcChJgb9CZM2fYsmUL69evZ9++fSxZsuS2CrBQrmrY2Ey56fK/gZxXwDq3/8VQcZQtZoCEL0p7oJmSsikqmw3xFbQEGs59jSbvFTlTGgdDsyS8AJ9RfpzUufN7BgamYeBphQFYpoXPsFAoXOWhNZjnqr6WaQHlvwdNP+a5CrCrPRzlYhoG5rmXC7/pv+j+aBztYlz0MU97eFrhM6zq7QlRixzH4ezZsySTSQKBAJOTk9TX19PU1HTdt6WBZE6xe8Smb9wla89Q8+ocpzmlqVZpDSBnl1cxSObhVMoDDDxdDqAnUh7bTtsYBjheOfD6TANXaYxzf7dMaAiZrGz2kQgaFByYyCvG8h4By6AuaNAZt1iQsIj4L+y7tczyBWWeKs+VPtMADa7W6POuljPPKwP7rfJtlKvMBkrr6t8NoxyeDbhq9Vjp8hxsGOXgLSFb1BoJsDfIdV08z6O3t5ePP/4Yz/MolUocOHCAN954g7GxMQYHBzl58uQVg61Gk3IyHMmfoqRstAaNwrzEJmkBNB+7NhgGQ5bvkp8T0oqPPZuiYTJmXb4Sqs/9d6nbuLbPKU+h2tD48OEzrOrnh8xgNaSWd/7y8Ci/YoSsAD5MFLoaWE3DwDBMXOVhGiZhK0DYDGErh7wqorTCNMoLlQfNABYWLi7N/nqiVgiFJu3mGHdSBA0/PsOHZVo0++uqYVYDRWUz7WaxDJOmcx/zUGTdPFmvQL0vTtQKXfbxELcnwzCxDKv6XLmcbDaL1povfelLszSy61coFCgWi3R3dxMKhcjn82QyGWKxGEeOHGHbtm0cOnSIqakpGhsbaWhouOxtacq9ryenPZJ5D9cD47zT8pV4VXnU9LkVCgyDanA6/3NiRo56M02JACkvgYP/qrcRNQvsNtO4WEx4CUo6UN6sQJfHYRgXXhNmwFU/zk18zsXPEH1u4wSfCUFfOQie386ALldr/ZaB37wwiBpA2F8+eC+55Ypv2F+uThddda5iXP48q7oLBNSHzx3wK03UX173tuRpYgETy4C0rfCbBnXB8oVrl1NwNUVXE7QMQj5DVmaYh3zmZ5eFu5z9+/fT1tZ2U2dcao0E2BtkmibBYBC/v1zJcxyHUCjEihUr6OjowHVdXNclFLpyIFJKceLUSXZ+vJPfeeYZfL7LzzgGn+79e7ltDyqfoykvfXOreJ7i2LFjHD9+jN/+7d/mvJcgKhtGfvqi8OnUfy1zpGEYGBjlOHzRmj3Gea+MpmFWXxCUVuVAbFS+j/GZ/lylNcVSkb6+PlKTUzzxxBPVr1Xngrp5pZLFXNGQy+c4fOgwrufy4IMPzvWIrkkmneFw32H8Pj/r1q3DnMdXyZxfF5uYmODo0aPU1dWxYsUKTLM8bqXKz69EIjFvz7ZorTFNk1AohN/vJ5/P43kefr+fpUuX0tHRwW/91m/heR6WZV1wP7TWDA4Ocvr0aRYtWsSCBQvOVStnZstWE41hKLQ20JjXtBhB+WvKn6m0ccku2v7jxxkdG6O3t5e2traaWP5PKcX+/fuxSyWWL19GXX096POC/7kH51Kh2TSpzo/muSXJKn/HOFdV5epVVU05pBvGte8pv3PnTgzTYNmyZcTj8ZpYpcbzPN7f/D6tra3ctfQugsHauCj5X/7lX1iypJfe3l4Cgau35ZVKJZqbm2vm/s0ECbA3qDJJplIpJicn8fl8mKZJNBolEolc8+0opchms9RFE/R0LcTnq40fied5ZKfSTI6O09O1aK6Hc82KxSLjo0mU49HZ0TnXw7lmmUyGs2fO4rpuzYw7FU5x9uxZ/H4/HR0d8zb0Xcw0TUZGRmhsbKS9vb1mxg0QDocJhUIMDw9XD7Ity8I0TSKRCOFw+LJfq5Qil8uRTqdpbm6mo6NjFkd+4wqZFNotsaC9hQULOmsiwHqeR/LsaYrFIgs62m6oxWMu1NfXYRgG7W1t1NXV1cRj7bouiXicxoYGOjrar1pUmi9isWh1DrrWUFoLP4+ZVBtpaR5qbm6mu7ub733vezzxxBMXBM/reRKZpklrayv3338/lmXVzBPQNE06Ojrw+/01M2YAv9/PwoULaW5urqlxB4NBFi9eXK0C1oJwOExvb2+10lcr447H4yxdupRwOFxT44by8zsSidDf38/IyAhPP/007e3t1Y9f6b6YpklzczM+n4/Gxsaaud9tbW1EIhHq6+vLZ29qYNyWZbFw4UJc1yUajdbEmAF6e3uB8u925czEfGdZFqtWrSIWi9XU69W6detoamqqqTHPNkNffI5WXBOtNaVSiUwmQyQSIRKJ3PCTTClVPc1XS5RSKKVqpmpc4XkeWuuaGrfWGqXKTSG1UhGsxTHDp+M2DKNmXqTP57putXUgEokQCASueW5SSqErF/bUyH2vjNk0a2v3QM8rN4LV0rhrccxQ/p0wDKOm5iHXdTFNs2Z+D+eCBFghhBBCCFFTrGefffbZuR7EnWxsbIyf/exnfPTRR9xzzz3z7ghxcnKSX/ziF/zlX/4l/f39APzwhz+ku7ubVCrFc889x4kTJ1i8eDFvvfUWv/jFL1i5ciXRaHTOxmzbNseOHaOvr498Ps/zzz/PqVOn6Orq4o033uC1116ju7ubgYEBnn/+edLpNIlEgldeeYXNmzezYsWKWW+Et22b48eP09/fz/T0ND/84Q/5u7/7O/L5PEopXnrpJSYnJ4nFYrz66qts27aNlpYW9u/fz8aNG3Fdl+7u7lkdM5R7c999911+8pOfVJdveuONNygUCgC88sorHDp0iEQiwc6dO3n77bfRWpPJZHj55ZcZHBxk0aJFs3r2wXEcjhw5wk9/+lM++OADTp06xXPPPcdLL70EwMmTJ3nnnXfQWjM9Pc3GjRs5ffo0fr+fzZs3s3XrViKRCM3NzbM25tkwOjrKW2+9xY4dO4jH4zQ2Ns71kC6pv7+fn/70p2zbto10Os3WrVs5fPgw4XCYPXv28Pbbb6OUoqmpad6dZTly5AhHjx7l/fffZ8eOHQQCAYaGhnjttddIJpM0NTVdsU95LuzYsYORkRGGhobYuHEjk5OTRKNRNm7cyCeffEIikSAej8+bSmEymeQHP/gBW7ZsIRAIsHHjRg4fPkxDQwN79+7lpZdewjCMarvMfPDhhx9SKpUwDIN/+Id/YHBwkJaWFrZu3coLL7xAXV0dSin+9m//lkwmQ1tbG8FgsKaq4LeCBNg5ZNs2fX199PX1sWbNGpLJJJ2dnfNmItBaMzIywsjICH/yJ39Ca2sr+/btY/369Rw6dAjP8xgbG6Onp4e9e/dy6tQpHnzwQU6cOMGyZcvmZMyu67J3715efvllPM9DKcXExAQLFixg69atZDIZli9fzsGDBymVSti2TSKRoK+vj6mpKVatWsXo6Cg9PT2zOuaBgQFef/11zp49S0NDA3V1dXzrW9+iu7ubY8eOUSgUqiFQa017ezvHjx+nUCiglKKhoYFQKEQsFpu1cXuex/T0dHWZpomJCQ4ePEhLSwumafLJJ59Ux3Ty5Eny+TymWV4O7dixY/j9fpqamrBtm7a2tlkbdzabZXR0lEAgQCaTYWJigieffJJnnnmGUCjEqVOnqlfwHzp0iHg8jmVZDA8PUygUCAQCxONxotFozVwQcjW2bXPixAlOnz5NJBIhGAwSCoWu64LU2VAoFBgfH69elX3o0CFKpRItLS0cP36cyclJ6urqsCyLurq6OT2Qvtjx48d555132LJlC7FYjIaGBqampkgmk2itiUQixGIxotHovClknDhxgqGhIUzTZGhoCL/fTzAYZPv27UQikeq/Gxsbr+lK+dnw0Ucf0dnZSTabZdu2bfT09OB5HsVikcHBQWKxGIFAgFgsRiQSmfPX276+Pn7+859TV1fHjh07WLx4MVNTU3ieR39/Py0tLRiGwRtvvMH69euZmJigsbGRurq6OR/7XLuz7/0cKxQKZDIZ7r33XhYuXMjJkyc/s2zUXMvlcux/umxIAAAgAElEQVTZs4ef//znvPzyy/j9/mr1NZvN8tBDD9Ha2srx48eJRCK0tLRg2/acjdeyLJYvX84jjzxCOl3egGHDhg0kEgmGh4eJRqM0NDQwPj6O1prPfe5zxONxzpw5QywWo76+nlKpNOtj7ujo4J577qGjo4Px8XG2bt3Kz372M379618TDodZt24dgUCA0dFR4vF4NTBGIhE2bNiAz+djdHR01sfd0tLC2rVraW9vx7Zturq6WLVqFVCu3icSCYLBIFNTUzQ1NbF27Vq01kxNTVFXV0c4HMZ13VkddzweZ+3atdx99934/X6Ghob49a9/zc9//nP27NlDW1sby5Ytw7Ztstls9eKg6elpOjs7Wb58ObZtk0qlZnXct1I+n8e2bRYtWkR3dzf5fJ5cLjfXw/qMUCjEsmXLqjsfhsNhVq1aRVtbG9PT0wDVAFvpv54PbNtmdHSUfD6Pz+ejvr6eRCJBKpXCsizWrFlDIpFgenp61uefy9Fas3XrVt58803eeustJiYmWL58eXWDjGg0Wj1gnk+vW6FQiK1bt3L06FFyuRzNzc0kEglGRkaor6/n/vvvx3Gcakicaz09PWzYsKF6MN/e3k4sFmNwcJD29nYefPBB0uk0U1NTNDc34/f759Vzey5JgJ1DlQsPKld0zpeJq8IwDFauXMlf/dVf8fTTT2MYBn6/H8uyqhe6VI5gbdsmEAigtZ71QHLxmEOhULXy4vf7q6fklFLVKkHl4rNwOFzeoctxquOf7Umt8riGw2FisRiPPfYY3/nOd7j33ntxHAeg2tKgtcbv91cf/0AgUL0Pc3XgUCgUGB4erq41GgwGqxcC+Xw+9LldhQKBAMFgsHrRjc/nq14IOJtM0ySfzzM0NMTChQv5zne+wx/90R+xePHi6oUTlcfYNM0LwlAwGCQQCFTXeb6dWJZFKBTCsqzq2Yv5pnLKdGRkhEwmQ3t7e7Xir7WurhoxnwIVUG1n6u3trYYQwzAumIcMw8BxnHnzuCeTSWKxGM888wzRaJSzZ89WL4AFqqffK7/P88Xk5CQbNmxg2bJlRCIRfD5f9TldeawrF07Ph3GHQqHq710gEKi+xrquW31dsG0by7Lw+XzzZtzzwfxoALlDVZZ+2bVrF4ZhzKvTXVAOSydPnmTnzp20trYyMTGB53nV/zc2NrJnzx46Ojqor6/HcRxyuRzZbHauh45hGMRiMUzT5NChQ7S1tREKhXAch2w2W13aad++fYRCIeLxeLXiVunfnO3xQnkx6v379zM+Pl4NU0opjh49SigUIhgMYtt29VS2bdscPHiQRCIxJz2L6XSaPXv2YJomjzzyCKdPn6a/v7+6qkapVKqG10wmw9TUVHWDj1KpVA2Is6lUKjE8PFytZg8ODpJOp8nn81iWxfT0NNPT07iui2VZFAqF6gHaxMQEyWSS+vr626Z9AKi2DfT391fnovlyGvt8Wmv6+voYHBxk1apVuK7L8PDwBctn5XI5/H7/vDrAmJqa4s0336Svr490Os2XvvQlenp6qgdDx44dwzRNuru7583jHggECAQCKKVob2+nv7+/2l7j8/lwXZdsNks0Gp1XgSqfzxMMBikWi2SzWTKZDMlkksbGRrLZbLXtJBAIzLtT8KZpUigUqm1sExMTHDhwoFoMcByHdDqNbdvz6jGfK/Prp3eHCQQC1NfXc+TIEZ5//nkeffTReTN5QTlUNTQ0UCqV2LhxI9/+9rdJJBL8/d//Pb29vdTX17Nlyxa2bNnC1772NQC+//3vz1n/6/njjsfjdHZ2EgwG2bZtG7t27eJrX/samUyGF154oXr6+I033+TEyZM89thjnD17lo0bN87J+CuhobGxkfr6ek6dOsXx48d5+OGHAdiyZQunT5/mS1/6EoODg7z33nusWLGCQqHA22+/zVgyOetbCFYOZnbt2sWPfvQjnnvuOXbt2sX7779PPp/nkUce4fDhw+zbt4+lS5cyMTHBpk2b0FqzevVqdu/ezaFDh+jq6prVcWezWfbs2cMLL7zAD3/4QzZv3sz+/fvRWrNu3TomJyfZvHkzkUiEtWvXsnv3boaHh1m0aBGnBgf54IMPAC5YX7XWBQIBotEoAwMDfPTRR4TD4VntS75WlT7G1157je9///ts2rSJ9957j71797J27VoCgQDbt28nl8vNq4uhHnroIZ599ln+5m/+hu9+97uEQiH27dtHQ0MD4XCYzVu2cGpwkKampnlTyKirq6O9vZ2tW7dSKBTo7e1ly5YtjI6O8tRTT9Hf38++ffswTXPeXAwF8MADD9DX18fExAS/+Zu/ySeffMLhw4dpbW0F4MUXX8TzPNrb2+fN0pX19fVEIhEef/zx6sWt3d3dOI7Dc889RyKR4JlnnuEnP/kJqVSKaDQ678L3XJBltOaYUopCoYDWel4uaF1Z77ZSNfM8j1KpRCgUwjRNisVidetK27ZxHIdwODznE5rneXied8EYg8EgjuPgum71lHyxWMTn81WrmZ7nVRewn02VlgClVLUlQ2tNMBjE87zqKaTKOCvtA0opHMepXkwx2yrPB8dxqjs+KaWqp8EqbQ1+vx/P86qnxSr3sfJzmc3JuPKYVVp2Ks/VSuuA4zjVCnLltG6lAuK6bvWxny8vfjOl8jybz/ev0u5T+dlVWgcqPzulFK7rVn+n59t8WmnNqDyPzt+KfC5+F67Gdd3q72nld8Hn81WrgZXnis/nmzePtVKKYrEIUP19vngurVSX58uYKz9/wzCqZwArZwwdx6nuqFcoFC7YYe9OJwFWCCGEEELUlPlzqCeEEEIIIcQ1mD+NK0LMc47jcPz4cVKpFPfeey+Dg4Pk83nWrl0LfHoBViqV4qmnnprj0Qoh7iQHDx7E8zx6enoYGRlBa013d3d1Ld/t27ejtWbVqlXU1dXN8WiFuHkSYIW4Rkop0uk0w8PDeJ7HkSNHeOqpp5iYmGDLli3s3r2b9vZ2tNacOnWK1atXs2HDhnmzwLcQ4vaVSqVwHIeTJ09SKBRYu3YtxWKRTZs20dfXRyAQwLIs9u7dy+rVq1mzZg11dXXzpg9UiOslAVaIa1BZH7ZQKDA0NEQikeCRRx6hvb2d6elpPM9jdHSUiYkJQqFQdbes+bBQthDi9lW5ANR1Xfr7+2loaGDNmjV0dXVV12MeGRmpXsxkmmZ1w5nKx4WoRXIRlxBXobUmm83y7rvv8uMf/5hMJkM0GsV1XZYuXcrdd9/N0qVLOXnyJFBepqmtrY0nn3xy3u4nL4S4Pdi2zXvvvcfzzz9PMpnEcRxCoRBNTU18/vOfp729nUwmg+M4TE5O0tnZyec+9zm6urrmfLUYIW6GPHuFuIrKpghPPfUUDQ0NDA0N0dbWxtmzZ/nyl79MOp1m9+7dHDhwoHqqbuXKlaxevVoCrBDilgoEAjz55JPVJfZSqRTBYJB77rkHy7I4fPgw27Zt49ixY2SzWVavXs3ChQtpbW2VACtqmvXss88+O9eDEGK+q2z7ODg4yLZt28jlcqRSKQ4cOEBdXR2e5/H000/T1NTE8PAwDz/8MI8++ui8WtNRCHF7Mk2ToaEhduzYQalUYmBggGQySTabJRQK8fjjj1NfX086nWbDhg3cf//90v8qap60EAhxjQqFAps3b+bIkSN84xvfIBqN0tfXx759+8hkMhw7doxIJMKGDRt49913KZVK/Nmf/RkPPPDAXA9dCHGbe/311xkbG+PBBx+kq6uL48ePc+TIESYmJti/fz8tLS309vayfft2XNfl937v93j44Yfnzc5fQlwvCbBCXIfKblmWZWEYRvUCisrHDMOo7kalta7uTiWEELeS53nVOacyN1Xmp8rFWue/X+YmUeskwAohhBBCiJoih19CCCGEEKKmSIAVQgghhBA1RQKsEEIIIYSoKRJghRBCCCFETZEAK4QQQgghaooEWCGEEEIIUVMkwAohhBBCiJoiAVYIIYQQQtQUCbBCCCGEEKKmSIAVQgghhBA1RQKsEEIIIYSoKRJghRBCCCFETZEAK4QQQgghaooEWCGEEEIIUVMkwAohhBBCiJoiAVYIIYQQQtQUCbBCCCGEEKKmSIAVQgghhBA1RQKsEEIIIYSoKRJghRBCCCFETZEAK4QQQgghaooEWCGEEEIIUVMkwAohhBBCiJoiAVYIIYQQQtQUCbBCCCGEEKKmSIAVQgghhBA1RQKsEEIIIYSoKRJghRBCCCFETZEAK4QQQgghaooEWCGEEEIIUVMkwAohhBBCiJoiAVYIIYQQQtQUCbBCCCGEEKKm+OZ6AEKIOaBBozEMY65Hch6Ncl08Babfj3VTQ1OU8jkKJUUwEiMUtLj2m3MoZDLkCppAPE4sHLjOI32H3HSagm0RScQJn/+9VYlcroRnBIlGgzd5Hy+iNRrAMC5xX12K+RKe9hEMB/CZF3+GRpe/mOt5Smg7RzpXQvujxCJBfNdZEvFcF42B5bMw0NiFPI62CARD+K2rfLGdZzpXQvnCxCJX+3yN67hgmOe+lxCi1lnPPvvss3M9CCHETXAKZNPTpIoKn88ErVDqCm9OgdTYGKMTecxgmKDfnCcv6IrsyClODJxiQoeJhEIEbjjhZTmw6SV+8dIWUrFF9LTX4b/mcDXI9p//gO//Px8y2drLkoWNhK5rGKfY9JP/xo+e34/RtYze9tinQTVzhPdef51N+zMkOjtpivrKj73n4iqFMkxMNEopvCv9DD/z5lKYGmN0PINthS4MzQAMs/ONN/nwkyTB9g4aogE+zbCaUjrJ2dFpigQIh3yXCOwerqvQ2sA8L/yWTmzhxedf5tcnNI1dHTTF/NWv1aUs6VwRz/ARuGSy9Rg5coDjw0mcUB3RoMeJbb/mvf2j6Po2WuJ+PpOzz9f3Nv/fj1/inTNhuhd20hQxwS1RsD00FpYJ2nUo5tKkJkc4/MkBzmY9IvV1hHzz5TkvhLhRUoEVotYNf8Lrz2/kTe9z/Lt/8xALAqDdAplMjgIhGuqiBM5PAsm9vPrcD/npkS7+4C//d/7tv2q/holA49l5pqdzeL4YDQ2RWzB5WMQbDc6++iovbvfx6L/7E756fyuhG2p0ihPRZzlw6F842LSBDXd3s/CaB2yTHz7G2aE4a80EdZf7/m6JkqvRviAh3/lxKEEiMEVq6hQnRibJF8IYXuVj3bT4x/jRxrcY0H7+w9fWk8CjNDzAyWmDcM8KljVpMskJprOKQCh4rlrqUchMUnB8hOINBL00E3kHfzhOQzgATHPgzX/k5V0l1nztT/jmk8tIXDDuacY+fIF/etNgINLK//jMPbQGADRufowdv/we//W1EVZ848/5i6/fR7vv4ng3walDo+TdOK0L41Q/3LCSxQ2/4p+f/ztGPY//6av30gKAIrv/VV78OEfnvV/mmYd6iAQueiCd0+z91f/F916fYv0f/kf+/OsP0hac4OMPtzPkb2ZR+1oarlRVNfIM7fyEAyM9/Mbj97Ks2QfjfWzbk8Rq7mH5wjhqeoSje7ez5d23eXfXIP413+Qv/uL3+eLaFgJXuGkhxPwnAVaI28DUYJr+7ATpiA8fiszJHfzyl79if/yLfOfbX2Sxv0SuYEMoQSISIGRliesSodjVwqtLMZtmOp1j8vh7PP/ih0wv/T2++z8/QfutuCOhXtbcs5x/eetHPPfP3SxZ8W95oO7cx7RNLjVN1raINjQQC1ylhmYCjc10dbWyMPrpu7WdI5XO4VpR6uuil63MNiYSxEIh0un0JT6qsE/sYMdAFnof5V+tbP7MeIKxKP7UGfo2H2TIDRL0CuQKHu6EyYoV9xDInWTTC8coGTbJfR+y/bjmnm/+OX/83y0mNdjH4FkfPSuW0NoQxWKSA2/+ZzYNdvPQ7/57Vo+/xn9+9xSLHvwG3/nCXXhOnFW/8ees+bKfQDhCSF/6PtV1Lmb5wu5qeHVy4xx64x/5x19uJ5O4n0WxECqnoO7i5DjK3n/8T/x8B3T/5sMsa7LAzjGdc3CyJj0r7iI2+gmv/Wg3HkEiMZfx/uMMnJrkuN3MogWtfH5p7IJbLJ3Ywyc7hzE6f5MnHljJwjiwYhWrWyYoFQqUFHClAFvfQEe0mXxTIxG/TSpl4y+MsO/H/5HXxxew8tEnWbukka5F9/Hf/6+/w79vTuB5BlYwcMWbFULUBgmwQtwWLAKRGA3tzTTZSU6ePcjAmQkWP9NLd32A1L73eXPbMUIP/RHfWt1IXSRM0OAaehYn6N/9OhtfOcxw+gh7Tk7Qs/TmR6vsHOnUNDnHwBfwY2kXx9Now0fAH6e9q4cB02F6dJjBlIvpDxL0htj60ots6m/kC3/8P/DbaxqgkGZ6OoNt+PH7rXOnrxWeY3N2dJJsrkB6apyzI2P4z93Z0sAWXnhlC2fanuSPv/Ub3NXov+Tp5PzUIIf3bCGavNQ9yHFq1695e/MRAp/LEv3jb/BIp0M2l6ekpkhni5SKkxw8eYqW6BLueeheup3DbPqwj9SKZ/jzh1YQP/4q/+VHb3O656t859k/4/+o+/TWFz3YwYozAxwZm2K44KcrZmGZZjl4WWCaJqZhgWmA5TJx7ChjKkT3unX01IWvHtC0SyF9lkNv/YIfvnaY0NP/G//1G09xd0f4Cl+Ug7oVfP6pf8O/vr8RDr/JD17dR+7+b/F/fmk9HcHDvPXjX9PvLOPxr36BZQlFrqTwBUKEgxe91Hh59m//iJ2FRdz3r7/EPSvP3fn65dzd+RqvDRxk34l1tCwLXXhflEM+nSKVLcH4JOlSkUIhzeiul9gypFiy0IejoHnpE/zuH/4pjyy+2gMhhKhVEmCFuJ1om/SRXex8s4/hwgqWGqNsf30723/1Gu8dUNwbupv7O3qv4wbbWP3ot1n9KPS/93/zn77/zxRnYJj5swfZ9MpGtp8J0L6onVhxmCODKQrhRdyzOER0xTq+qHN88N++y/cOJmla9SAP3dWE7dTT2hkkf3aAkWVrMQ9sZuOr73Ei0E53Rx0hAHeKk3t38uH7H3BIh2gc/QFW390sW9pMAHCLeZx4Ew3+LGdOj7OkseMzgU/jI9G2jPse/TJfXnGZO/Fbv8efnffPqUM72LJjF/1FGN99gtPHkzD9FpmRVeQjzTR/YTU9obf4f9/cQz7w5zwwPUi+roN/dW8vzU6S5HSM+ni4WhEOTu7jl3//z7xfXMCXH+lges9JTkyl0Jte4nRmD6dOpkibm3hp3OaTlzeyeXgR3/ibv+Z/+fp66q/w2GsnT2p0lF1vvMybhxT3ffu7fPXRZdRfQ1nSZ7gUslOMnC2hx8/Q996vOXQ0wl0L27m3bZqRY2/z6v7duG3N0NDP5j0pWtc8xpMPLiVe7QVRFE6/y+Z3+2le+tv8zgNraK8eQdSz5t51vLZ/O+9t28aSzodZHDvvIrriBIc2/ZJXt56kaI+wfaAfT33EB809JIBUxmT0sk9QhesoDMPEut6rzYQQ844EWCFuGxo7NcDHu/YwFu3g4afvImEECDmTnHHbePy73+E//P6DtKf2MjST39XOkZpIMmUHqG9upTF69WkltugBvvYXD/C1yjtSe3hp405GrQ18+/fvLfcnegO88/+3d6bRUZ3nHf/N3Nk00oxGmhntu4RACzJCQgILzCJsEBiMDTauE4d6S43jpmlPc3qS0zQfctrkpGntk7hJ46Y2sZ3GjU1sdiOMkVmFZBahXUhC0mjXjDSa0Sx3ttsPQC0wa3pyGnPu7+O97/vc97733pn/ec//fZ7XW2jqtFJa8ywvPZTxxUCVG3ipcsPs0SBeOsybzSfZ64ygKEwjOT6Ngox5VD25kRLDHfzkBcMEgvEoohPQxdysUQCPy0tQ0hBj1KNSQFzhMjYWLgPsnPx1Dw5lAUu2fZ+N6lO833CEXTo1y2LTsRr9TPUf5axbQ3r+cuZrm9jxSj3j6TU88+QK8k1X1JxSBeZcSuev57mv5tKh7kTZm86yx75O6bhAB71kPrCZr68NsdvWzKQqk/y0jFuKV8IiM7bz1J5rx6YvZdtfr7xu1TVMMCihUAiovuCDBbPGw6Wzdbx9apSAz8alCRde/ylqP3DSpBMZ6BhhyuXh9CfvcXGylea2CeKXC8SnpPBA/uXJjPjt1B84RFN0Dqu3rqAs81o3qq5oOTULGnj90G/ZqdOwdU0ZKUbdZWGvT6L8sb+k/LEI/fv/md76AUJF1Wx+/hFKLQoY/piJ3e8xGPQx43binJ79XCfpbhtBiE0lb246MTo5G4GMzJcZWcDKyNwjSEEvgx19iKo5rPq7l0lsf583fvpdfuGeQ+WjL/PNpxaT9EdYeAoOn2HPaz/hze4cvvK33+H5pYl3H8RkxaqUsA1doksso1gL0uQ4w93TqPQlzMu6gXi9AZI4RVP9cU65DJRsWk2ewk9KmhlNoIsTdT3k1szl1vpaIjhqZ3xkkqmwiM81zviNLAShfo7uOYktlEPNUw8x16S9gRiSIBzEH5zgTMMxxgbC6FfOIdfYzO59+xFyl7ImxUn32RYaTrYwmjeXNeuryDfNEnThID63E8eEg2lvCL/fz/TkOJPTXsKBAKJ7ivGJEC5PgPD1Vw8F8ItBIkoValWIcFhC8vRz0a7iqQef5ZEcEwJcTi8FQATRfYnW9kkUhiwK5iYSo73uhTHMYUnNNqrzFQjjR/m3/iBtSTVs++YWysxj1P28n3BrCjVPf5vNZfFfnLeIn4nGfdQ2hEmuqGZBtgGv04n3mkZKMhetZsm5V3nvP37I0NizbHmwgjkWAzEGPVFaNUJkgs7OCwyO9BM1Pkhf7wDJgoX4MIAW39QA7RdOEhkKMmMfwRnQohdtnDhylqn09bz44uMsyzfJXlgZmS8xsoCVkblHiExPIpgWs3DdPDKUvTRMDONUWkk0GbFKTvpauglbTcSG/QQjEW6yz+eu0cSYySiqoNyQTFqc7g+MkkpmZgzNY720tfkoLNXhGRri4ogKKbeA7Mw7CBERmWw5zJFPelDnbKCm4BL7jjVgKFhIsbeZ/cdqOZiTzLoC4y0yG0SYGncyIbpw+To5e3g3o/obNJvp5dTuI1wIl6IvKCJ7ZQ7aq+ekCJIkEfS7mBrsZ0g5iUswYsmcQ3FpKZFwD/svBbFkJJKXnIpW7SE9fhwyUklK/1y8hiMRVCEnY60N1Gr68AxHsPU0M/LOL+hNDBInKAn1NrDbNUP7oBfJaEA3a6d/xDVMR+cwbo2ZjEQnbo+IqE0nOzudpGgPA10OJKWWaMNVn6kfW8Ne3tx5DFfuE7z8zCaWZH/x5lUaFYIK8HuZCfhwBbzMuKaYElzM+CJICChvlEw2EsA1/BkH61oQ4xLIiXbRXX+IC/ZxpoNajPFmjDoBsHNu5x6ap6KwJrhp3PFtPt2/nIcf3sT6NZUUZScSNXKWC2cGGB3VkNFXx5uvNnKk8lGeWQy+cAap81exav067osb5eNXvsWBSwVsfu6b/OKluDt4kWRkZL4MyAJWRuYeQbCkk5aTRcJYG8frDnH4synmbv0O2xInOfb2O/zDuzMkLFpFzf2peLx+QrcPeWdYiljxTBEr/o9hMnJyiDs/SMe5z3DMK2HwYhuDShUli4vI1d6udwjv+FkOH/yIDlUu6x99kJKJ19kHoEimtEpHS/tO9v3mfYxf38zSjNibiFiBhLKNvPyTKl6IRDAkWGcJUwlJkpAUSpTjJ1F3ORAiFRQXXRav4YCXGaeDyclLdA+MYbs0jDQwSmGuAaPai63tFLV0Iw42M2CzM+j0E+xoIC1Ow8gNfJseoshfUEXp/GrWlpqZPi7wo9b/5qzfxNOPb2NtwVWzQB+NSXO45DaTFeNhYlKF0WRAa4rHkhBEE1CjUasQBCUKhYAgqFGppzh/9Dh2VTZL11SQrFUAMWRXbeMHVdtAqSM65jaTHhCIxMcjKR30N9fj1fgYdEVjMCURrVEiwawCDgFmRrs4eugCgaLNPFOQRJQijFI/zolX3+DwYCGbtr/E/YWxQCv2XW7OiIVsfHkraWMfc6BNTdHCYopyEjEKfjpPX+CiUkdseg6FS56gwnqCDxr3UhdIpdMt4tcJCOrbvTMyMjJfZmQBKyNzTyAR8s8w3t1Id109Ns19bHxiPp11BznoXs+z//ivPPTZLnYet2OfFolW3qha0/8zKbnkp9TT3niKA8c9iPVdhFTlLF0wj1tLKQlxupfje3/P4QEjVVufZkNpPP21n7fQZC6kamUbp3/+Aa/9LEDguU0syTITq1ejvEEVKoPFjOGaa4Tw2G3Yxr0I5nQy/H48YgCvVolwRQh7x1o4/N5v+H1dB31D3Siya1i+bCml7GcXBnIWLmfdxvn4TyroDPYSV7yBbz1YjHG8np+01HLxyr0E3JM4pmcIxhWzsmY+APbek+w7sJ8WRToPb6iiMN7P6LANv18kpFCTXLqMdLGbI7ve4qCumLWPr2G+2Uh6rvHK+GcwRGvQavQY4y1YEs0smnuWD8/30zOxmPxSM9e7Ba4hIiFFNChVGhSBaRxjHvxhC6ueeY61cQkkGwQgTFGqnqijvdj7LjKRfR/W6CsZHoJ22pv70OcvZ1N5EZarDzTool5UERuTTnJaOpZEDURi0evUpGfmk5lXxfKHqlg1+0m4LnCmXWRewf1opm0o0JFfsoZNejeJigEuqC1YEkwYb+pflpGRuReQBayMzD1BCPfYAMPO+1j2xLd50qqCYD90HuNs7SFOLPwuf7bhr1iwAZhsYvcrH/3pffwKK3Pnl5DQ9B7vvvoxQa2FwkeWMD/rVp0kQp4JWo7UcrhNYs7KR1iRp2HcZmPUPo3X68c1OUZ/zzRdUxGsSXGMNLzBD3o6eOTJTaxdXEi21YA6JOL1h1BoblahyUlz7Vvs+LAV4+oXeKk0gN2jwmeJIfqK0jXodZgyyln34kb0tg/46Mx1ISab+OjXDXR3jl1QbeIAAAWSSURBVBCyKrh04Jf8uHURaxenzWoUYaL9BHvqzjChTiTFpAXRRV9jHZ/0iqQuXESUo4lD+8/hG2zm+GcduM0l3F9WQJJKxCNpUIhuxgdG8ZkzuZWGy7pvAUmndlN/6BMSU9ezKOkWxSm8ATz+JDRxSWjcTRxvaKJnZASbPYQqLo28lGhUQTd9jfs4cLIfw/0vYsnKorrYctmeoE1h0ZqUL4QN20bon4xBkZdBXPwV+4RXxOsXCGk1CNebVCM+BuubGDTnUTZPg7LJRg8QU7KOZ1dEGNj/Y96xCuSnxCKbBWRk7m3+5P7DZGRk/hDUxGUWUlZVQX44iN/tYGrKjyKtnBWPKclLVhAIg+aPsWsl6MHpsOPwa4izWu8oC8HNiMkpoDRXy953Ghgv3M7T8+YSG+YmCe0jiG4HvacPc2ZQIK+0kpjpRt77r9MIgoKp3iZstmEmT9Xy9sVp2ls7cScvoWpTIcOf7uG3P2ujrXcbz29eTU5kiPauPgI6/c039lgWs/X5xRBtQeHpQpLUCFotwtXVRHMJq7aUcDkLwQc3DCH2etGnrWP798tx7Pg+ezu8RK5Z6xVIrdjIixUbr9yiD+eZnfy0TkdexVf5xt9soSJRQcQ3zvG32jhEPCU1T/LC5nIS7naDnnkhy6vbOf/Ox7y7U4P+iWoKzDFcXzALAOc0To+I36oiuvABqiofALGDPW9/gk0zh5UbyrH0H+TfT+vIWrWd7d/4c6oLbichQ9h7e+iSDCQWp5FuvnJ42o3ba0WdlED0dQpcmumm1R5L4YIFlGXaaJl9MuKkr68TISaF/ISE61bQZWRk7jVkASsjc48REd2MdJzmyKcnuNBjR9SY6HKGCaxZTVlWzF3uvI4Q8LhwTjkZGnUw4/Ljd4xi6x9GaTRiiotBPdHCJ//5S97uyWTL9m/wlUrLHzxuR3sj58+PEU6YS3SojUP73icxqobyXAum6OsqKIV9DLee5vSQQO7qr1A9R4fPH0JSatFHCXTVRhj8sIG0h57m7zcVz+oYYGLdw7wQELDOL7iSmSGRtIKFdzxWz7kevCEfSkHB3enGEP6ZSSZGxnA6vYQl/teCcEMCIzS3NjNhzaRyaTZWbz/9PSJTrbXsOnARffYWNlSW3L14lYL43C6EnArWL+nkzd07eM3lYuv6ByhOtxBviEKt+nw1WpyYYESIQp9lJeGqMtTO44GKLt7cd5q9v2sh2HGUc4pitm7bwrLbildAHOJc81l8cUmU5aaTcPW4z4NLDBFQC5c3i80iHDSzsLqaKJMZk8MGRIhEIkQkCNqbON8RxmotJzfVepcTIiMj82VDFrAyMvcEYYJ+Dy6HAydgzKnkkZxK1kxcpH7vDt766F3GIzEkPVFKtHOaGX+AyB3FDeDob+Fk3aec7+ojHI6HgUZ2veuldFEly1bNJw416mgD1nj9F+vd3wlSCL/LQd+5Ovbs3EOTWMxfvPI95or17PjVHv7lh21Ur1/D8oW5pJrNxJti0GtVKHxeotLLWV2QRNqVQk5R0ddVuJckIpJEBGYJTQ3WgmLuXOJIhIJBwiEJlUaNUhFgbGyI0bAbvUVD9O0DXEahQBUlMj3USsPBacTBEGqTFcOtEjfoclj2tX+ibOMotp5WTu/+kGOf1tPUN4Q/aSHrCsyoXTYG7YlYTNHobpC7dTaRoAfHcC+d7UpGbf0M+ywUl3+N7drf8dqvf8X3Thxi6fJVLKsoITczhbSEeAx66OsfRExJoLwwh8+NAGG0WaWUxB7mZ2+8zhmhkqeeX0VJlolwSEJS3cpnHcDVfpLmrmjyih+iIM2E1yui0WkIO6YY9KjAEkOM8dpeKnMKydccceH1eRFnXHQ1nqFdm09ZdQlzkj6/TsgfwuMNEghfn2hMRkbmy8z/AGF4F0rLpuK3AAAAAElFTkSuQmCC;" vertex="1" parent="1">
          <mxGeometry y="120" width="418.78" height="210" as="geometry" />
        </mxCell>
        <mxCell id="yygSjh7mzqQ4J_nsRkTJ-4" value="Text" style="text;html=1;align=center;verticalAlign=middle;resizable=0;points=[];autosize=1;strokeColor=none;fillColor=none;" vertex="1" parent="1">
          <mxGeometry x="345" y="438" width="50" height="30" as="geometry" />
        </mxCell>
      </root>
    </mxGraphModel>
  </diagram>
</mxfile>
